<?xml version="1.0" encoding="UTF-8"?>
<svg id="Layer_2" data-name="Layer 2" xmlns="http://www.w3.org/2000/svg" xmlns:xlink="http://www.w3.org/1999/xlink" viewBox="0 0 1537.97 761">
  <defs>
    <style>
      .cls-1, .cls-2, .cls-3, .cls-4, .cls-5, .cls-6, .cls-7, .cls-8, .cls-9, .cls-10, .cls-11, .cls-12, .cls-13, .cls-14, .cls-15 {
        stroke-miterlimit: 10;
      }

      .cls-1, .cls-2, .cls-3, .cls-5, .cls-6, .cls-7, .cls-8, .cls-16, .cls-9, .cls-10, .cls-17, .cls-13, .cls-14 {
        fill: none;
      }

      .cls-1, .cls-2, .cls-4, .cls-11, .cls-15 {
        stroke: #000;
      }

      .cls-1, .cls-5, .cls-6, .cls-8, .cls-10, .cls-17 {
        stroke-width: 1.5px;
      }

      .cls-18 {
        fill: #fff;
      }

      .cls-19 {
        fill: #baa677;
      }

      .cls-20 {
        fill: #efc282;
      }

      .cls-21 {
        clip-path: url(#clippath-2);
      }

      .cls-22 {
        fill: #e3bb86;
      }

      .cls-23 {
        fill: #dba362;
      }

      .cls-23, .cls-9 {
        opacity: .35;
      }

      .cls-3 {
        stroke: #e89f56;
        stroke-width: 4px;
      }

      .cls-24 {
        clip-path: url(#clippath-6);
      }

      .cls-25 {
        fill: #b05e38;
      }

      .cls-26 {
        fill: #a95c3d;
      }

      .cls-27 {
        fill: #f9edda;
      }

      .cls-28 {
        clip-path: url(#clippath-7);
      }

      .cls-4 {
        fill: #9f9582;
        stroke-width: 3px;
      }

      .cls-29 {
        clip-path: url(#clippath-1);
      }

      .cls-30 {
        clip-path: url(#clippath-4);
      }

      .cls-31 {
        fill: #e5933f;
      }

      .cls-5 {
        stroke: #eddfb7;
      }

      .cls-32 {
        fill: #231310;
      }

      .cls-33 {
        opacity: .4;
      }

      .cls-34 {
        fill: #f0d1b1;
      }

      .cls-6, .cls-7 {
        stroke: #dba362;
      }

      .cls-35 {
        fill: #ba7742;
      }

      .cls-8 {
        stroke: #49201f;
      }

      .cls-36 {
        clip-path: url(#clippath);
      }

      .cls-37 {
        fill: #5e2d2a;
      }

      .cls-38 {
        fill: #ba6f4d;
      }

      .cls-9 {
        stroke: #9e8458;
        stroke-width: 13px;
      }

      .cls-10 {
        stroke: #978256;
      }

      .cls-39 {
        clip-path: url(#clippath-3);
      }

      .cls-17 {
        stroke: #6d2f2b;
        stroke-linejoin: round;
      }

      .cls-40 {
        clip-path: url(#clippath-8);
      }

      .cls-11 {
        font-size: 48.48px;
      }

      .cls-11, .cls-12 {
        font-family: GlueGun, 'Glue Gun';
      }

      .cls-11, .cls-12, .cls-13, .cls-15 {
        stroke-width: 2px;
      }

      .cls-11, .cls-41, .cls-15 {
        fill: #fdf9e9;
      }

      .cls-12 {
        fill: #393520;
        font-size: 146.2px;
        stroke: #2a2a1e;
      }

      .cls-13 {
        stroke: #ca9972;
      }

      .cls-42 {
        clip-path: url(#clippath-5);
      }

      .cls-14 {
        stroke: #f8e6c8;
        stroke-width: 5px;
      }

      .cls-43 {
        fill: #f8e6c8;
      }

      .cls-44 {
        fill: #9c493e;
      }
    </style>
    <clipPath id="clippath">
      <rect class="cls-16" width="1537.97" height="761"/>
    </clipPath>
    <clipPath id="clippath-1">
      <rect class="cls-16" x="0" width="1537.97" height="761"/>
    </clipPath>
    <clipPath id="clippath-2">
      <rect class="cls-16" x="0" y="-.4" width="1537.97" height="761.4"/>
    </clipPath>
    <clipPath id="clippath-3">
      <rect class="cls-16" x="0" y="-.4" width="1537.97" height="761.4"/>
    </clipPath>
    <clipPath id="clippath-4">
      <rect class="cls-16" x="1059.77" y="433.97" width="608.65" height="357.88" transform="translate(2728.19 1225.82) rotate(180)"/>
    </clipPath>
    <clipPath id="clippath-5">
      <path class="cls-16" d="M1253.07,631.93c4.68-17.8,5.03-36.81,14.29-53.15,2.33-4.12,5.24-8.03,9.07-11.17,4.26-3.49,9.5-5.89,14.68-8.22,5.99-2.7,14.7-2.86,21.22-1.87,12.71,1.93,23.77,10.65,27.36,21.57,1.83,5.57,1.83,11.46,1.81,17.26-.75-4.24-2.52-8.33-5.13-11.95-2.57-3.57-5.94-5.79-9.97-8.04-2.81-1.56-6.05-2.92-9.33-2.45-10.43,1.52-16.07,11.27-17.83,19.59-1.2,5.71-2.03,11.18-2.66,16.96-.52,4.77-1.03,9.55-2.3,14.21-1.6,5.87-4.54,11.38-8.47,16.31-2,2.51-4.79,4.62-6.68,7.16-.73,.98-.77,2.14-1.45,3.12-.85,1.23-2.48,1.94-3.91,2.54-8.63,3.58-18.63,6.49-27.53,3.47-.88-.3-1.82-.74-2.09-1.53-.19-.56,0-1.17,.22-1.73,1.14-2.96,2.69-5.78,4.02-8.68,1.99-4.34,3.48-8.83,4.68-13.4Z"/>
    </clipPath>
    <clipPath id="clippath-6">
      <path class="cls-16" d="M1338.8,576.8c4.52,11.59,15.64,27.43,19.02,40.92,1.79,7.11,1.74,14.58-.13,21.67-.85,3.23-2.1,6.42-4.05,9.25-12,17.45-43.91,17.43-64.08,17.22-19.57-.2-39.83-1.13-57.97,5.35-7.61,2.72-14.83,6.25-20.97,11.09-4.97,3.92-9.41,8.42-14.93,11.76-5.88,3.56-12.09,6.65-18.49,9.45-9.41,4.12-19.53,6.78-29.59,9.42-3.3-7.91-33.61-47.49-33.61-47.49,0,0,14.1-2.52,25.08-5.43,16.63-4.4,31.18-13.24,46.19-20.93,11.46-5.87,23.91-11.34,37.14-13.19,13.77-1.92,28.21-.66,41.82,1.63,13.83,2.33,28.01,2.09,41.96,3.58,8.36,.89,16.96,2.24,25.1,.34,3.8-.89,7.49-2.56,9.92-5.29,2.99-3.36,3.71-7.89,3.5-12.16-.24-4.85-1.53-9.6-2.82-14.32-2.07-7.6-4.14-15.19-6.21-22.79"/>
    </clipPath>
    <clipPath id="clippath-7">
      <path class="cls-16" d="M1415.21,681.64c-4.39,13.41-12.94,25.62-23.99,35.55-11.42,10.26-25,19.39-40.32,24.57-9.99,3.38-21.43,5.03-32,2.97-12.66-2.47-23.01-12.4-27.16-22.94-5.05-12.82-1.32-25.67,7.75-36.22,11.97-13.92,29.47-22.94,42.9-35.6,6.78-6.39,12.95-13.46,20.99-18.7,15.7-10.25,36.07-6.89,46.02,8.14,8.2,12.39,10.34,28.45,5.82,42.23Z"/>
    </clipPath>
    <clipPath id="clippath-8">
      <path class="cls-16" d="M1454.33,644.18c2.17-11.05,5.1-22.4,13.54-31.26,17.3-18.15,47.73-20.94,73.45-16.65,2.45,.41,4.88,.88,7.3,1.4,13.95,3,27.95,7.44,38.53,15.68,2.57,2,4.91,4.21,6.93,6.6,18.9,22.38,26.82,50.97,21.51,77.94-2.7,13.74-10.55,27.39-24.46,35.49-13.91,8.09-34.46,9.22-47.5,.33-10.82-7.37-14.03-19.09-17.98-29.57-4.52-12.02-9.54-23.95-16.12-35.32-4.98-8.6-12.28-17.73-23.79-19.34-7.29-1.02-14.89,1.39-20.52,5.34-4.48,3.15-11.02,14.19-11.02,14.19,0,0-3.19-7.97,.12-24.82Z"/>
    </clipPath>
  </defs>
  <g id="OBJECTS">
    <g>
      <g>
        <g class="cls-36">
          <g>
            <g class="cls-29">
              <rect class="cls-43" x="-.02" width="1537.97" height="761.4"/>
              <g class="cls-33">
                <g>
                  <rect class="cls-43" x="0" y="-.4" width="1537.97" height="761.4"/>
                  <g class="cls-21">
                    <path class="cls-27" d="M414.18,145.53c-7.18-4.12-14.05-8.83-22.58-11.14-8.53-2.31-19.47-1.48-24.76,4-14.17-12.59-12.51-32.82-29.15-43.61-17.07-11.06-43.44-6.22-64.35,.26-2.57,.8-5.35,1.63-8.06,1.17-4.43-.74-6.57-4.38-8.33-7.49-11.16-19.69-34.42-35.54-62.07-41.45-13.81-2.95-28.57-3.33-42.66-1.28-4.27-3.28-8.8-6.37-13.58-9.23-16.04-9.61-36.52-16.93-56.78-14.16-20.27,2.77-37.49,19.17-30.04,33.44,3.51,6.73,11.39,11.59,19.11,15.97,92.1,52.2,205.97,79.39,320.3,93.35,28.19,3.44,57.39,6.11,85.05,.81-22.5-3.11-43.98-10.25-62.1-20.64Z"/>
                    <g>
                      <polygon class="cls-34" points="-84.46 357.63 14.34 382.37 25.34 461.86 69.08 447.11 143.26 166.69 230.68 173.07 201.36 415.84 274.49 420.62 259.75 259.6 338.22 248.03 365.66 318.19 542.8 306.9 612.11 443.36 690.8 436.89 717.07 352.25 973.38 332.95 1039 452.83 1092.38 443.36 1187.24 288.85 1229.71 296.87 1222 365.89 1281.26 354.59 1321.75 659.36 1412.5 678.23 1422.19 365.89 1463.54 353.42 1443.41 276.19 1572.17 230.38 1767.28 759.64 -227.19 759.64 -84.46 357.63"/>
                      <polygon class="cls-43" points="215.41 199.3 202.46 198.59 203.42 188.97 216.37 189.68 215.41 199.3"/>
                      <polygon class="cls-43" points="185.81 191.23 172.86 190.52 173.82 180.9 186.77 181.61 185.81 191.23"/>
                      <polygon class="cls-43" points="203.72 298.88 190.77 298.17 191.73 288.55 204.68 289.27 203.72 298.88"/>
                      <polygon class="cls-43" points="212.65 226.94 199.69 226.23 200.66 216.61 213.61 217.32 212.65 226.94"/>
                      <polygon class="cls-43" points="155.62 209.13 142.66 208.41 143.63 198.79 156.58 199.51 155.62 209.13"/>
                      <polygon class="cls-43" points="184.23 207.11 171.27 206.4 172.23 196.78 185.19 197.49 184.23 207.11"/>
                      <polygon class="cls-43" points="182.64 222.99 169.68 222.27 170.65 212.66 183.6 213.37 182.64 222.99"/>
                      <polygon class="cls-43" points="176.59 283.48 163.64 282.76 164.6 273.14 177.55 273.86 176.59 283.48"/>
                      <polygon class="cls-43" points="210.68 246.64 197.73 245.92 198.69 236.3 211.64 237.02 210.68 246.64"/>
                      <polygon class="cls-43" points="148.93 257.2 135.98 256.49 136.94 246.87 149.89 247.58 148.93 257.2"/>
                      <polygon class="cls-43" points="136.14 323.54 123.18 322.83 124.15 313.21 137.1 313.92 136.14 323.54"/>
                      <line class="cls-14" x1="282.97" y1="278.31" x2="296.7" y2="378.31"/>
                      <line class="cls-14" x1="309.25" y1="272.66" x2="319.81" y2="318.19"/>
                      <line class="cls-14" x1="323.12" y1="335.98" x2="329.06" y2="360.29"/>
                      <line class="cls-14" x1="1202.83" y1="313.24" x2="1186.11" y2="353.42"/>
                      <line class="cls-14" x1="1180.4" y1="363.68" x2="1163.68" y2="403.85"/>
                      <polygon class="cls-43" points="1514.06 275.25 1464.01 292.48 1459.46 285.21 1509.52 267.98 1514.06 275.25"/>
                      <polygon class="cls-43" points="1524.02 291.2 1473.96 308.43 1469.42 301.16 1519.48 283.92 1524.02 291.2"/>
                      <polygon class="cls-43" points="1533.28 321.23 1483.22 338.46 1478.68 331.19 1528.74 313.95 1533.28 321.23"/>
                      <polygon class="cls-43" points="1541.29 338.72 1491.24 355.95 1486.69 348.68 1536.75 331.44 1541.29 338.72"/>
                      <polygon class="cls-43" points="1570.52 255.8 1536.69 267.45 1532.15 260.18 1565.98 248.53 1570.52 255.8"/>
                    </g>
                    <g>
                      <path class="cls-13" d="M-157.55,414.67c-13.71-45.86-12.23-94.61,4.25-139.87,10.62-29.16,31.82-59.94,68.43-67.28,51.25-10.27,95.27,30.3,119.63,68.04,19.73,30.57,31.06,58.1,48.02,89.49,17.99,33.28,38.15,73.87,39.43,110.21,.4,11.45-3.95,23.73-22.19,24.94-10.81,.72-21.4-3.35-29.08-9.05-33.85-25.08-33.49-63.19-35.78-96.12-2.06-29.7,.41-59.57,6.26-88.97,8.38-42.12,39-80.38,98.44-75.05,42.6,3.82,77.94,26.29,103.59,52.79,60.2,62.23,89.09,142.7,102.66,219.65,1.6,9.09,2.82,18.56-.75,27.28-3.58,8.72-13.25,16.46-24.64,16.39-12.87-.08-22.42-9.38-29.3-18.14-29.92-38.08-46.7-82.79-47.98-127.84-.64-22.43,2.66-45.39,14.66-65.64,12-20.25,33.61-37.55,60.53-43.34,29.49-6.33,61.7,1.92,85.7,17.1,24,15.18,40.81,36.55,54.24,58.62,32.66,53.68,47.81,114.2,43.54,173.88-.93,13.01-5.29,28.65-20.68,32.67-11.25,2.94-23.83-2.38-30.61-10.18-6.78-7.81-8.99-17.55-10.56-26.99-6.95-41.73-.96-90.68,41.33-115.42,37.03-21.66,90.77-16.06,128.78,4.45,34.79,18.77,56.83,46.71,77.24,75.4,22.25,31.28,41.87,65.03,44.94,101.52,1.08,12.8-1.09,27.53-14.03,35.01-13.15,7.6-32.46,3.96-44.53-4.72-37.03-26.64-35.87-77.17-20.32-111.63,18.61-41.26,69.68-66.2,124.07-58.21,44.25,6.5,81.89,31.91,104.89,63.05,16.11,21.82,27.74,46.22,33.56,71.18,4.33,18.57,17.25,57.78-10.99,68.5-9.11,3.46-20.53-.59-26.31-7.23-5.78-6.64-7.1-15.13-7.28-23.24-1.02-46.16,11.64-95.79,45.23-134.02,12.84-14.62,30.05-28.67,48.75-38.38,42.81-22.23,80.97-.11,93.16,35.89,13.92,41.08-4.01,91.69-33.64,125.5-4.01,4.58-8.51,9.13-14.66,11.75-6.15,2.63-14.35,2.88-19.62-.78-5.45-3.78-6.21-10.26-6.3-16.06-1.34-83.37,64.1-188.46,174.69-206.77,21.68-3.59,45.29-3.84,64.81,4.56,31.31,13.48,43.34,45.12,43.69,73.71,.55,44.9-23.46,132.71-59.07,122.57-32.51-9.26,25.57-109.81,32.83-122.59,34.7-61.08,81.27-124.97,156.02-158.73,15.79-7.13,33.9-13.1,51.6-10.05,18.59,3.21,32.86,16.13,39.27,30.54,6.4,14.41,6.09,30.18,4.25,45.42-6.75,55.95-32.91,109.37-66.03,158.86-9.79,14.63-21.24,29.79-39.75,37.14-4.84,1.92-10.4,3.26-15.62,2.14-12.93-2.76-14.49-16.94-12.61-27.6,13.49-76.38,63.05-144.74,121.66-204.37,40.54-41.26,136.92-145.38,212.33-92.94,28.54,19.84,26.16,55.79,17.23,85.28-21.89,72.31-88.07,189.42-134.97,191.77-46.89,2.35,45.01-143.92,103.52-202.32,45.1-45.01,97.43-90.47,167.13-104.4,69.7-13.93,157.84,19.7,162.65,77.41"/>
                      <g>
                        <line class="cls-13" x1="97.73" y1="225.84" x2="114.04" y2="239.9"/>
                        <line class="cls-13" x1="103.16" y1="242.89" x2="108.94" y2="222.9"/>
                      </g>
                      <g>
                        <line class="cls-13" x1="242.19" y1="272.6" x2="243.11" y2="291.71"/>
                        <line class="cls-13" x1="232.4" y1="288.37" x2="253.12" y2="276.16"/>
                      </g>
                      <g>
                        <line class="cls-13" x1="256.04" y1="399.09" x2="234.57" y2="407.7"/>
                        <line class="cls-13" x1="233.93" y1="398.57" x2="256.51" y2="408.47"/>
                      </g>
                      <g>
                        <line class="cls-13" x1="383.57" y1="289.65" x2="384.36" y2="308.76"/>
                        <line class="cls-13" x1="373.67" y1="305.38" x2="394.47" y2="293.25"/>
                      </g>
                      <g>
                        <line class="cls-13" x1="529.19" y1="399.16" x2="540.02" y2="416.24"/>
                        <line class="cls-13" x1="528.52" y1="416.74" x2="540.98" y2="398.78"/>
                      </g>
                      <g>
                        <line class="cls-13" x1="449.99" y1="532.89" x2="433.53" y2="546.84"/>
                        <line class="cls-13" x1="428.99" y1="538.43" x2="454.48" y2="541.58"/>
                      </g>
                      <g>
                        <line class="cls-13" x1="653.52" y1="447.49" x2="648.35" y2="466.17"/>
                        <line class="cls-13" x1="639.04" y1="460.79" x2="662.97" y2="453.12"/>
                      </g>
                      <g>
                        <line class="cls-13" x1="971.85" y1="468.25" x2="948.62" y2="463.29"/>
                        <line class="cls-13" x1="955.81" y1="456.14" x2="964.34" y2="475.49"/>
                      </g>
                      <g>
                        <line class="cls-13" x1="1233.17" y1="412.11" x2="1227.94" y2="430.77"/>
                        <line class="cls-13" x1="1218.64" y1="425.38" x2="1242.59" y2="417.76"/>
                      </g>
                      <g>
                        <line class="cls-13" x1="1271.53" y1="551.49" x2="1247.87" y2="554.92"/>
                        <line class="cls-13" x1="1250.51" y1="546.01" x2="1268.65" y2="560.6"/>
                      </g>
                      <g>
                        <line class="cls-13" x1="1368.41" y1="358.36" x2="1345.66" y2="352.15"/>
                        <line class="cls-13" x1="1353.44" y1="345.41" x2="1360.29" y2="365.18"/>
                      </g>
                      <g>
                        <line class="cls-13" x1="1495.13" y1="444.64" x2="1472.09" y2="450.12"/>
                        <line class="cls-13" x1="1473.48" y1="441.04" x2="1493.52" y2="453.94"/>
                      </g>
                      <g>
                        <line class="cls-13" x1="1050.26" y1="604.83" x2="1027.03" y2="599.88"/>
                        <line class="cls-13" x1="1034.22" y1="592.73" x2="1042.75" y2="612.08"/>
                      </g>
                      <g>
                        <line class="cls-13" x1="1107.67" y1="438.07" x2="1084.44" y2="433.12"/>
                        <line class="cls-13" x1="1091.62" y1="425.96" x2="1100.16" y2="445.32"/>
                      </g>
                      <g>
                        <line class="cls-13" x1="1412.5" y1="466.85" x2="1389.27" y2="461.9"/>
                        <line class="cls-13" x1="1396.46" y1="454.75" x2="1404.99" y2="474.1"/>
                      </g>
                      <g>
                        <line class="cls-13" x1="832.38" y1="470.64" x2="827.21" y2="489.32"/>
                        <line class="cls-13" x1="817.9" y1="483.94" x2="841.82" y2="476.28"/>
                      </g>
                      <g>
                        <line class="cls-13" x1="71.7" y1="369.36" x2="93.17" y2="360.75"/>
                        <line class="cls-13" x1="93.81" y1="369.89" x2="71.23" y2="359.98"/>
                      </g>
                      <g>
                        <line class="cls-13" x1="39.09" y1="464.98" x2="52.67" y2="448.93"/>
                        <line class="cls-13" x1="58.81" y1="456.54" x2="32.95" y2="457.1"/>
                      </g>
                      <g>
                        <line class="cls-13" x1="23.05" y1="274.85" x2="32.24" y2="257.17"/>
                        <line class="cls-13" x1="40.23" y1="263.76" x2="14.99" y2="267.99"/>
                      </g>
                    </g>
                    <g>
                      <g>
                        <path class="cls-13" d="M501.54,678.49c-16.11,18.18-27.74,38.5-33.56,59.3-4.33,15.47-17.25,48.13,10.99,57.07,9.11,2.88,20.53-.49,26.31-6.02,5.78-5.53,7.1-12.61,7.28-19.36,1.02-38.45-11.64-79.79-45.23-111.64-12.84-12.18-30.05-23.88-48.75-31.97-42.81-18.52-80.97-.09-93.16,29.89-13.92,34.22,4.01,76.38,33.64,104.54,4.01,3.82,8.51,7.6,14.66,9.79,6.15,2.19,14.35,2.4,19.62-.65,5.45-3.15,6.21-8.55,6.3-13.38,1.34-69.45-64.1-156.99-174.69-172.24-21.68-2.99-45.29-3.2-64.81,3.8-31.31,11.23-43.34,37.58-43.69,61.4-.56,37.4,23.46,110.55,59.07,102.1,32.51-7.71-25.57-91.47-32.83-102.12-34.7-50.88-81.27-104.1-156.03-132.23-35.84-13.48-80.43-11.5-93.17,21.74-5,13.04-3.28,26.96-.38,40.35,9.97,46.16,33.52,90.68,68.53,129.53,8.62,9.57,18.28,19.04,31.57,24.96,7.73,3.44,18.13,5.41,25.4,1.46,7.64-4.14,7.89-12.44,6.76-19.41-2.77-17.1-9.34-33.73-16.77-50.04-25.03-54.89-56.85-111.82-106.99-156.92-49.04-44.12-138.58-83.76-210.04-42.38-28.54,16.53-26.16,46.47-17.23,71.04,21.89,60.23,88.07,157.79,134.97,159.75,46.89,1.96-45.01-119.89-103.52-168.53-45.1-37.49-97.43-75.37-167.13-86.97-69.7-11.6-157.84,16.41-162.65,64.48"/>
                        <g>
                          <line class="cls-13" x1="412.32" y1="629.78" x2="435.55" y2="625.65"/>
                          <line class="cls-13" x1="428.37" y1="619.69" x2="419.83" y2="635.81"/>
                        </g>
                        <g>
                          <line class="cls-13" x1="151.01" y1="583.01" x2="156.24" y2="598.56"/>
                          <line class="cls-13" x1="165.53" y1="594.06" x2="141.58" y2="587.72"/>
                        </g>
                        <g>
                          <line class="cls-13" x1="112.64" y1="699.12" x2="136.3" y2="701.98"/>
                          <line class="cls-13" x1="133.66" y1="694.56" x2="115.53" y2="706.71"/>
                        </g>
                        <g>
                          <line class="cls-13" x1="15.77" y1="538.24" x2="38.52" y2="533.07"/>
                          <line class="cls-13" x1="30.73" y1="527.45" x2="23.88" y2="543.92"/>
                        </g>
                        <g>
                          <line class="cls-13" x1="310.77" y1="699.56" x2="333.79" y2="704.29"/>
                          <line class="cls-13" x1="331.38" y1="696.49" x2="313.41" y2="707.54"/>
                        </g>
                        <g>
                          <line class="cls-13" x1="276.51" y1="604.64" x2="299.74" y2="600.51"/>
                          <line class="cls-13" x1="292.55" y1="594.56" x2="284.02" y2="610.68"/>
                        </g>
                      </g>
                      <g>
                        <path class="cls-13" d="M1738.64,739.45c13.71-38.2,12.23-78.81-4.26-116.51-10.62-24.29-31.82-49.93-68.43-56.04-51.25-8.55-95.27,25.24-119.63,56.68-27.42,35.39-48.67,72.98-62.46,111.79-10.32,29.03-21.69,61.35-18.41,91.41,.6,5.48,3.57,12.12,11.62,13.12,15.84,1.97,32.79-15.56,37.35-23.66,29.81-53.02,38.61-111.29,25.25-167.25-8.38-35.09-39-66.95-98.44-62.51-42.6,3.18-77.94,21.9-103.59,43.98-60.2,51.84-89.09,118.87-102.66,182.97-1.6,7.57-2.82,15.46,.75,22.72,3.58,7.26,13.25,13.71,24.64,13.66,12.87-.07,22.42-7.81,29.3-15.11,29.92-31.72,46.7-68.96,47.98-106.49,.64-18.69-2.66-37.81-14.66-54.68-12-16.87-33.61-31.28-60.53-36.1-29.49-5.28-61.7,1.6-85.7,14.25-24,12.65-40.81,30.44-54.24,48.83-32.66,44.72-47.81,95.13-43.54,144.85,.93,10.83,5.29,23.86,20.68,27.21,11.25,2.45,23.83-1.98,30.61-8.48,6.78-6.5,8.99-14.62,10.56-22.48,6.95-34.76,.96-75.54-41.33-96.14-37.03-18.04-90.77-13.38-128.78,3.71-34.79,15.64-56.83,38.91-77.24,62.81-22.25,26.06-41.87,54.17-44.94,84.57-1.08,10.66,1.09,22.94,14.03,29.16,13.15,6.33,32.46,3.3,44.53-3.94,37.03-22.2,35.87-64.28,20.32-92.99-18.61-34.37-69.68-55.15-124.07-48.49-44.25,5.42-81.89,26.58-104.89,52.52"/>
                        <g>
                          <line class="cls-13" x1="1483.37" y1="582.15" x2="1467.05" y2="593.86"/>
                          <line class="cls-13" x1="1477.93" y1="596.35" x2="1472.15" y2="579.7"/>
                        </g>
                        <g>
                          <line class="cls-13" x1="1403.98" y1="585.9" x2="1403.05" y2="601.82"/>
                          <line class="cls-13" x1="1413.77" y1="599.04" x2="1393.05" y2="588.86"/>
                        </g>
                        <g>
                          <line class="cls-13" x1="1325.05" y1="726.47" x2="1346.53" y2="733.65"/>
                          <line class="cls-13" x1="1347.16" y1="726.03" x2="1324.58" y2="734.29"/>
                        </g>
                        <g>
                          <line class="cls-13" x1="1131.61" y1="681.37" x2="1130.82" y2="697.29"/>
                          <line class="cls-13" x1="1141.51" y1="694.47" x2="1120.7" y2="684.37"/>
                        </g>
                        <g>
                          <line class="cls-13" x1="1051.91" y1="726.53" x2="1041.08" y2="740.75"/>
                          <line class="cls-13" x1="1052.57" y1="741.17" x2="1040.11" y2="726.22"/>
                        </g>
                        <g>
                          <line class="cls-13" x1="1509.4" y1="701.71" x2="1487.92" y2="694.53"/>
                          <line class="cls-13" x1="1487.29" y1="702.15" x2="1509.87" y2="693.89"/>
                        </g>
                      </g>
                    </g>
                    <g>
                      <path class="cls-34" d="M515.23,23.85c-1.8-1.76-3.9-3.3-6.19-4.67,10.1-5.94,17.18-16.53,13.23-25.33-9.11-20.32-45.2-32.63-72.55-27.16-14.84,2.97-27.02,12.32-30.52,23.44-.73,2.31-1.07,4.71-.99,7.1-9.3-.6-18.8,1.06-27.43,3.81-11.14,3.55-21.44,9.07-27.86,16.71-6.42,7.64-8.52,17.54-3.79,25.83-9.59-4.83-22.51-7.46-32.73-3.41-19.78,7.83-14.65,30.4-4.56,42-10.26-4.17-24.1,.98-28.74,8.95-4.64,7.97-1.91,17.38,3.65,25.02-9.78-2.5-21.69,3.29-22.52,10.95-.47,4.32,2.04,8.48,4.49,12.41-3.64-.54-7.28-1.08-10.92-1.62-.98-.15-2.01-.29-2.96-.04-1.18,.3-1.94,1.14-2.51,1.97-4.08,5.96-1.88,13.29,2.24,19.24-4.75-1.75-11.05-.69-14.32,2.41-3.27,3.1-3.16,7.9,.26,10.9-6.23-2.25-14.39-1.79-19.38,1.79-4.98,3.58-5.55,10.29-.47,13.79,5.08,3.5,14.96,1.99,16.95-2.94,3.84,2.81,9.07,4.85,14.43,4.5,5.37-.35,10.51-3.65,10.49-7.65,7.63,4.68,19.25,6.39,27.57,2.4,8.32-3.99,10.21-14.37,2.19-18.68,6.88,1.96,15.05,2.28,21.31-.61,6.26-2.89,9.45-9.59,5.43-14.18,6.84,3.28,14.4,5.98,22.48,6.66,8.09,.68,16.8-.89,22.58-5.15,5.78-4.26,7.84-11.42,3.66-16.61,7.03,2.61,15.19,4.31,22.75,2.7,7.56-1.61,13.82-7.45,11.96-13.12,4.75,4.09,13.52,5.22,19.85,2.55,17.63-7.42,7.35-21.09-2.69-28.43,11.08-.18,22.41-.4,32.75-3.35,10.34-2.95,19.68-9.21,21.58-17.32,.73-3.1,.29-6.19-.99-9.14,3.74,.34,7.5,.53,11.26,.55,9.49,.04,19.6-1.14,26.7-5.81,17.61-11.58,5.63-29.32-5.72-40.46Z"/>
                      <path class="cls-34" d="M312.03,12.01c5.05,3.93,12.55,5.89,19.86,5.67,7.66-.23,15.55-3.11,18.86-8.25,4.9-7.62-1.8-21.41-12.67-24.68-11.76-3.53-27.92,3.6-31.32,12.2-2.06,5.21,.24,11.12,5.28,15.05Z"/>
                      <path class="cls-34" d="M340.26,202.36c4.88,3.14,12,4.8,18.87,4.76,7.2-.04,14.52-2.12,17.46-6.05,4.36-5.82-2.41-16.63-12.74-19.36-11.18-2.95-26.14,2.28-29.05,8.89-1.76,4,.59,8.62,5.47,11.76Z"/>
                    </g>
                    <g>
                      <path class="cls-34" d="M1327.84,213.04c-4.98,2.7-9.02,6.47-10.8,10.86-2.12,5.24-.91,10.88,.81,16.2-9.09-4.12-19.91-6.61-30.43-5.41-10.53,1.2-20.49,6.61-23.4,14.22-3.38,8.84,3.04,18.13,10.99,25.17-7.91-1.34-15.49,4.26-16.84,10.2-1.35,5.94,1.68,11.9,4.65,17.51-.84-1.59-8.89,1-10.07,1.88-2.64,1.96-4.68,5.02-5.44,7.69-.82,2.88-.64,5.85-.46,8.79-3.4-2.06-8.84-1.46-11.98,.81-3.14,2.27-4.2,5.8-3.66,9.03-2-1.11-4.35-2.11-6.83-1.91-2.58,.21-4.69,1.69-5.92,3.39-1.72,2.38-1.97,5.44-.06,7.73,4.04,4.87,13.8,2.08,18.3-.94,2.44,3.5,7.18,6.35,12.48,6.34,5.3-.02,10.47-3.72,9.49-7.59,8.17,3.74,18.63,5.43,27.49,2.67,8.85-2.75,14.83-10.8,11.16-17.39,10.92,4.05,24.42,4.64,35.29,.52,10.88-4.12,18.37-13.25,16.87-22.25,7.24,1.82,14.79,3.67,22.38,2.98,8.83-.8,16.94-5.36,20.08-11.54,3.14-6.18,.99-13.71-5.47-18.25,6.48,1.32,13.84-1.32,17-5.72s2.21-10.12-1.82-14.12c-4.03-3.99-10.79-6.25-17.51-6.31,1.36-8.96,1.42-17.56-4.31-25.76-9.49-13.58-35.56-17.71-52-8.82Z"/>
                      <path class="cls-34" d="M1420.17,236.23c2.81,2.18,6.98,3.28,11.04,3.16,4.26-.13,8.65-1.73,10.49-4.59,2.73-4.24-1-11.91-7.05-13.72-6.54-1.96-15.52,2-17.42,6.79-1.15,2.9,.13,6.18,2.94,8.37Z"/>
                    </g>
                    <path class="cls-27" d="M608.76,146.13c-17.36-6.54-34.61-13.7-48.61-23.75-9.44-6.78-20.59-15.26-24.19-24.95-8.52-22.9,28.53-12.37,40.14-4.35,11.09,7.66,17.98,18.02,24.36,28.23,11.41-8.26,29.8-10.66,44.32-5.79,14.52,4.87,24.25,16.7,23.45,28.52,6.89-5.45,15.17-11.34,25.22-10.89,9.76,.44,17.13,6.85,21.23,13.44,7.08,11.39,13.41,19.09,23.1,28.7-9.52,8.1-51.2-5.03-63.24-8.1-22.61-5.76-44.48-13.05-65.78-21.07Z"/>
                    <path class="cls-27" d="M1160.13,256.5c6.35-.8,12.82-1.69,18.45-4,5.64-2.31,10.41-6.31,11.11-11.07,1.2-8.12-9.5-14.63-20.09-16.84-7.94-1.66-16.87-1.78-24.05,1.24-9.2,3.87-13.51,11.83-17.17,19.19-5.5-6.22-13.82-11.73-23.81-12.36s-20.83,5.56-19.66,12.96c-1.24-5.52-11.61-8.49-17.52-5.02-3.82,2.24-5.21,6.09-8.52,8.74-3.01,2.41-7.33,3.64-11.49,4.78-8.21,2.26-24.23,4.93-10.44,10.14,8.83,3.33,32.52-.52,42.49-.95,27.02-1.18,54.02-3.38,80.69-6.81Z"/>
                  </g>
                  <g class="cls-39">
                    <g>
                      <path class="cls-41" d="M556.46,848.47c-9.84-38.4-35.12-76.19-78.61-98.21-43.48-22.02-106.87-24.35-146.89,1.05,4.9-11.37-.39-24.77-12.78-32.37-12.39-7.6-31.11-8.94-45.22-3.22-8.35-20.24-16.92-40.72-32.03-58.67-15.11-17.95-37.75-33.37-65.45-38.35-21.66-3.89-43.16-4.57-64.88-.88-18.67,3.17-35.75,12.07-50.93,26.84-18.41-16.6-46.24-37.84-73.85-44.38-55.8-13.21-124.86,5.36-148.38,45.19-7.49,12.7-10.32,26.68-10.79,40.54-1.63,47.91,23.68,93.8,48.54,138.03,1.78,3.16,3.67,6.44,7.14,8.7,4.08,2.66,9.69,3.49,15.01,4.25,223.9,31.56,442.76,80.01,661.16,128.37,3.94-38.98,7.78-78.49-2.06-116.89Z"/>
                      <path class="cls-5" d="M271.93,713.61c2.79,9.79,4.21,19.79,4.22,29.8"/>
                      <path class="cls-5" d="M330.86,750.86c-6.11,4.8-11.7,9.97-16.7,15.43"/>
                    </g>
                    <g>
                      <path class="cls-41" d="M1531.2,636.64c-46.05,1.72-89.18,23.84-109.57,54.55-11.93-8.22-29.25-11.9-45.23-9.61-15.98,2.29-24.64,8.41-37.65,19.58-3.96,3.4-8.39,10.21-8.39,10.21,0,0-2.6-6.52-10.35-8.46-37.51-9.36-78.77,2.74-112.57,18.02-54.25,24.53-96.45,61.05-137.4,97.11,77.38,6.47,153.89,17.86,231.23,24.6,160.66,13.99,324.02,7.82,483.67,27.18,6.75-34.21-8.77-70.46-40.89-95.49-32.12-25.03-80.14-38.28-126.47-34.91,5.92-.43,8-26.91,8.01-30.43,.03-11.1-2.69-22.7-8.59-32.95-15.34-26.67-47.43-40.82-85.79-39.39Z"/>
                      <path class="cls-5" d="M1420.67,690.36c17.52,6.81,26.87,19.62,32.61,34"/>
                      <path class="cls-5" d="M1330.36,711.37c-6.43,8.73-9.87,17.12-12.87,25.75"/>
                    </g>
                  </g>
                </g>
                <g class="cls-30">
                  <g>
                    <g>
                      <g>
                        <path class="cls-37" d="M1412.67,604.42c-1.27,.21-23.66,.99-34.27,6.22-24.64,12.15-50.22,62.11-50.22,62.11l-46.38-26.73-28.44,30.31s29.23,55.34,60.94,68.43c14.16,5.84,31.69,5.4,56.62-20.55,24.93-25.95,50.76-66.53,50.76-66.53"/>
                        <path class="cls-37" d="M1466.76,595.43c9.75,.41,42.13,2.51,57.93,18.63,15.8,16.13,18.83,52.08,7.91,83.58-10.91,31.5-33.9,128.25-33.9,128.25l-173.1,6.17s22.13-117.61,23.67-129.25c1.54-11.63-.62-24.16,3.87-40.33,4.49-16.17,25.77-48.26,25.77-48.26,0,0,24.34-8.7,33.74-10.06,9.4-1.36,44.35-9.16,54.1-8.74Z"/>
                        <path class="cls-1" d="M1470.91,601.38c-8.7,9.04-20.35,15.47-32.94,18.18-11.89,2.56-29.83,1.43-33.92-10.92"/>
                        <path class="cls-1" d="M1341.1,745.15c3.68-17.44,12.29-34,14.92-51.58,.88-5.86,.76-11.76,1.55-17.63,1.94-14.57,10.04-28.75,7.93-43.61"/>
                        <path class="cls-1" d="M1327.83,672.53c4.64,3.3,9.98,5.73,14.87,8.74,4.89,3.01,9.47,6.78,11.59,11.69"/>
                      </g>
                      <g>
                        <path class="cls-35" d="M1453.05,575.07l14.09,20.79s-15.4,17.08-34.52,18.92c-19.13,1.85-22.81-3.29-22.81-3.29l-10.76-27.36,18.17-37.66,25.77,.81,10.05,27.79Z"/>
                        <path class="cls-35" d="M1388.87,537.3c-1.52,2.12-2.76,4.4-3.77,6.67-3.31,7.44-2.17,13.76-1.26,21.5,.68,5.82,1.29,11.64,1.99,17.46,.52,4.29,1.17,8.81,4.15,12.23,2.45,2.8,6.21,4.51,10.07,5.46,14.23,3.52,30.26-2.88,38.45-13.74,8.18-10.86,9.06-25.23,4.33-37.58-3.21-8.38-9.33-16.39-18.53-19.9-5.35-2.04-11.35-2.41-17.17-2.1-2.54,.14-5.11,.41-7.44,1.3-4.31,1.64-8.24,5.13-10.8,8.7Z"/>
                        <path class="cls-32" d="M1372.21,547.86c-1.46-4.76-1.81-10.81,2.91-13.85,2.7-1.73,6.2-2.39,8.47-4.66,3.48-3.47,.54-4.85,2.26-9.23,1.66-4.24,6.71-8.14,11.73-8.83,7.37-1.01,13.63,3.65,20.97,4.76,3.35,.51,6.77,.37,10.17,.5,9.81,.37,17.86,3.73,25.62,9.04,8.2,5.6,9.53,10.96,10.13,20.15,.68,10.45-1.94,17.01-7.19,26.07-.36,.61-.78,8.27-.46,8.6-5.45-5.85-10.71-11.42-15.05-17.98-.69-1.05-1.41-2.12-2.44-2.93-.94-.74-2.09-1.22-3.21-1.71-7.81-3.44-14.94-6.7-16.6-15.14-3.9,1.77-8.67,1.6-12.8,.28-4.13-1.31-7.73-3.66-11.08-6.16-.33-.25-.7-.51-1.14-.48-.34,.02-.64,.22-.9,.41-7.89,5.78-10.46,13.95-10.31,22.69-4.38-1.79-8.54-5.04-10.23-9.12-.31-.75-.61-1.57-.87-2.43Z"/>
                        <path class="cls-1" d="M1395.12,563.93c.52,4.9-.3,9.89-.71,14.78-.1,1.16-.14,2.78,1.51,2.95,2.46,.26,6.29-.81,8.97-1.4"/>
                        <path class="cls-1" d="M1389.71,556.8c-.46,3.43-3.44,6.11-6.59,7.9"/>
                        <path class="cls-1" d="M1401.59,555.02c5.35,2.33,13.19,4.62,19.2,3.27"/>
                        <path class="cls-1" d="M1434.83,590.13c-2.71,3.73-7.05,6.75-11.51,8.58-5.2,2.13-11.21,2.73-17.93,3.04"/>
                        <g>
                          <path class="cls-35" d="M1433.36,561.11c1.03-2.5,3.4-4.78,5.52-5.34,6.71-1.77,11.85,5.07,12.08,10.86,.15,3.92-1.68,8.13-5.14,10.42-4.9,3.23-11.35,3.25-13.41-2.35"/>
                          <path class="cls-1" d="M1445.89,562.79c-4.32,2.52-8.6,5.12-12.83,7.79"/>
                          <path class="cls-1" d="M1436.66,556.92c-2.05,1.48-3.61,3.6-4.38,5.95"/>
                          <path class="cls-1" d="M1450.69,570.05c-.94,3.58-3.48,6.9-7,8.37-3.52,1.47-7.98,.77-10.36-2.01-.48-.56-.87-1.18-1.28-1.79"/>
                        </g>
                        <path d="M1408.48,566.72c.37,1.34,1.49,2.25,2.5,2.03s1.53-1.48,1.16-2.82c-.37-1.34-1.49-2.25-2.5-2.03-1.01,.22-1.53,1.48-1.16,2.82Z"/>
                        <path d="M1386.3,570.33c.37,1.34,1.49,2.25,2.5,2.03,1.01-.22,1.53-1.48,1.16-2.82-.37-1.34-1.49-2.25-2.5-2.03-1.01,.22-1.53,1.48-1.16,2.82Z"/>
                        <path class="cls-1" d="M1413.22,585.39c-1.97-.74-4.23-.59-6.3-.12-2.64,.6-5.8,1.25-7.6,3.2"/>
                      </g>
                    </g>
                    <g>
                      <path class="cls-44" d="M1260.69,763.38c.23-15.04-3.08-29.89-6.56-44.54-3.36-14.14-8.41-28.88-8.66-43.39-.03-1.58,.02-3.18,.49-4.71,.49-1.58,1.4-3.03,2.37-4.43,5.51-8.01,12.87-15.14,21.88-20.09,11.13-6.12,25.08-8.12,38-7.87,10.2,.2,23.78,.89,30.46,8.82,2.1,2.49,3.18,5.52,4.72,8.32,6.1,11.03,16.93,20.07,22.27,31.43,2.24,4.76,3.05,9.94,3.53,15.08,.52,5.57,.67,11.17,.42,16.75-.28,6.44-1.09,12.86-1.16,19.31-.23,20.9,7.25,41.27,16.22,60.62l-7.61,8.22c-18.83,8.24-38.38,16.65-59.39,17.41-14.86,.54-29.51-2.81-43.9-6.14-5.8-1.34-11.66-2.7-16.96-5.18-1.39-.65-2.82-1.46-3.46-2.74-.75-1.5-.19-3.23,.37-4.8,2.3-6.43,2.31-12.14,3.73-18.6,1.71-7.75,3.11-15.56,3.22-23.47Z"/>
                      <g>
                        <g>
                          <path class="cls-25" d="M1297.99,607.61l-16.07,31.02s12.9,15.98,31.95,17.14c12.29,.75,16.47-10.1,16.47-10.1l.31-22.07"/>
                          <path class="cls-25" d="M1343.69,604.65c-2.54-10.29-5.85-23.8-11.09-32-7.06-11.05-24.29-15.02-36.64-8.56-15.33,8.02-17.97,27.31-13.01,41,1.57,4.33,3.84,8.47,6.72,12.25,5.36,7.04,13.41,11.29,22.43,13.97,9.92,2.95,23.25,3.76,29.66-5.19,5.01-7,3.93-13.4,1.93-21.48Z"/>
                          <path class="cls-32" d="M1313.92,587.85c2.67-3.49,4.37-5.82,5.76-9.82-.18,.51,15.22,5.63,16.95,6.59,2.35,1.31,2.34,2.36,3.09-.74,.74-3.07-2.77-8.81-4.63-11.31-2.04-2.75-3.76-4.19-6.6-6.31-8.24-6.14-18.33-9.2-29-6.87-7.79,1.7-15.36,5.07-21.12,10.04-6.86,5.92-10.02,14.76-13.21,22.54-4.41,10.78-6.26,22.2-5.88,33.63,.4,12.31,.86,24.59,.68,36.93,0,.29,0,.6,.2,.84,.29,.34,.85,.36,1.34,.34,3.99-.13,8.01-.25,11.9-1.05,3.89-.79,7.69-2.3,10.47-4.83,1.96-1.79,3.33-4,4.94-6.04,1.98-2.51,4.36-4.8,5.81-7.57,1.2-2.29,1.72-4.81,2.01-7.31,.68-5.85,.16-11.75,.26-17.63,.08-4.62,.51-9.29,2.12-13.71,1.69-4.64,4.92-6.93,8.45-10.46,2.31-2.31,4.51-4.72,6.47-7.27Z"/>
                          <g>
                            <path class="cls-25" d="M1300.88,608.83c-1.8-1.16-4.31-1.7-5.87-1.28-4.94,1.35-4.9,7.4-2.35,11.03,1.73,2.46,4.82,4.38,8,4.52,4.51,.21,8.47-2.12,7.13-6.3"/>
                            <path class="cls-1" d="M1293.98,614.41c3.83-.02,7.66,.02,11.5,.13"/>
                            <path class="cls-1" d="M1296.9,607.46c1.95,.17,3.89,.9,5.46,2.06"/>
                            <path class="cls-1" d="M1294.41,620.59c2.25,1.85,5.35,2.97,8.19,2.59,2.84-.38,5.25-2.42,5.41-4.99,.03-.52-.02-1.04-.05-1.56"/>
                          </g>
                          <path class="cls-1" d="M1307.7,627.48c5.51,3.18,14.01,5.98,22.82,5.53"/>
                          <path class="cls-1" d="M1329.72,598.27c.68,1.79,1.36,3.6,2.65,5.24,.67,.85,1.5,1.64,2.01,2.54,1.21,2.1-.09,2.87-3.1,3.93"/>
                          <path class="cls-1" d="M1329.23,584.18c.97,2.63,6.99,4.24,10.93,4.44"/>
                          <path class="cls-1" d="M1326.82,617.78c2.44-1.94,5.8-2.95,9.08-2.71"/>
                          <path class="cls-1" d="M1316.39,588.94c-.67,1.03-1.34,2.05-2.02,3.08-.9,1.37-1.8,2.75-2.99,3.93-1.71,1.7-3.94,2.93-6.15,4.1"/>
                          <path d="M1314.8,602.53c.45,1.39,1.64,2.31,2.65,2.06,1.01-.25,1.46-1.59,1.01-2.98-.45-1.39-1.64-2.31-2.65-2.06-1.01,.25-1.46,1.59-1.01,2.98Z"/>
                          <path d="M1335.7,596.59c.45,1.39,1.64,2.31,2.65,2.06,1.01-.25,1.46-1.59,1.01-2.98-.45-1.39-1.64-2.31-2.65-2.06-1.01,.25-1.46,1.59-1.01,2.98Z"/>
                        </g>
                        <path class="cls-31" d="M1253.07,631.93c4.68-17.8,5.03-36.81,14.29-53.15,2.33-4.12,5.24-8.03,9.07-11.17,4.26-3.49,9.5-5.89,14.68-8.22,5.99-2.7,14.7-2.86,21.22-1.87,12.71,1.93,23.77,10.65,27.36,21.57,1.83,5.57,1.83,11.46,1.81,17.26-.75-4.24-2.52-8.33-5.13-11.95-2.57-3.57-5.94-5.79-9.97-8.04-2.81-1.56-6.05-2.92-9.33-2.45-10.43,1.52-16.07,11.27-17.83,19.59-1.2,5.71-2.03,11.18-2.66,16.96-.52,4.77-1.03,9.55-2.3,14.21-1.6,5.87-4.54,11.38-8.47,16.31-2,2.51-4.79,4.62-6.68,7.16-.73,.98-.77,2.14-1.45,3.12-.85,1.23-2.48,1.94-3.91,2.54-8.63,3.58-18.63,6.49-27.53,3.47-.88-.3-1.82-.74-2.09-1.53-.19-.56,0-1.17,.22-1.73,1.14-2.96,2.69-5.78,4.02-8.68,1.99-4.34,3.48-8.83,4.68-13.4Z"/>
                        <g class="cls-42">
                          <g>
                            <path class="cls-3" d="M1338.28,587.76c-.67-5.28-4.53-9.83-8.87-13.5-8.35-7.07-22.6-5.45-29.4,2.53-4.97,5.82-5.94,13.56-6.64,20.6-.48,4.9-1.39,9.57-2.24,14.41-1.81,10.28-5.55,20.29-11.02,29.5-.55,.92-1.11,1.83-1.69,2.74-2.96,4.61-6.43,9.15-7.46,14.37"/>
                            <path class="cls-3" d="M1340.64,576.1c-4.9-7.97-15.31-12.51-25.58-12.99-6.99-.33-14.02,2.45-18.8,7.01-5.88,5.61-6.49,12.89-8.29,20.01-2.59,10.24-5.11,24.92-10.21,34.4-3.77,7.01-9.03,13.31-13.64,19.92-4.61,6.61-8.67,13.76-9.62,21.48"/>
                            <path class="cls-3" d="M1324.13,559.32c-6.1-2.17-13.03-2.71-19.32-1.01-10.51,2.86-17.81,11.46-21.91,20.46-4.1,9-5.72,18.73-9.21,27.93-8.08,21.3-25.73,38.82-35.08,59.71"/>
                            <path class="cls-3" d="M1290.85,558.34c-8.22,5.45-13.84,13.45-17.88,21.8-4.04,8.34-6.68,17.15-10.15,25.69-6.78,16.68-16.74,32.34-29.36,46.13"/>
                          </g>
                        </g>
                        <path class="cls-31" d="M1338.8,576.8c4.52,11.59,15.64,27.43,19.02,40.92,1.79,7.11,1.74,14.58-.13,21.67-.85,3.23-2.1,6.42-4.05,9.25-12,17.45-43.91,17.43-64.08,17.22-19.57-.2-39.83-1.13-57.97,5.35-7.61,2.72-14.83,6.25-20.97,11.09-4.97,3.92-9.41,8.42-14.93,11.76-5.88,3.56-12.09,6.65-18.49,9.45-9.41,4.12-19.53,6.78-29.59,9.42-3.3-7.91-33.61-47.49-33.61-47.49,0,0,14.1-2.52,25.08-5.43,16.63-4.4,31.18-13.24,46.19-20.93,11.46-5.87,23.91-11.34,37.14-13.19,13.77-1.92,28.21-.66,41.82,1.63,13.83,2.33,28.01,2.09,41.96,3.58,8.36,.89,16.96,2.24,25.1,.34,3.8-.89,7.49-2.56,9.92-5.29,2.99-3.36,3.71-7.89,3.5-12.16-.24-4.85-1.53-9.6-2.82-14.32-2.07-7.6-4.14-15.19-6.21-22.79"/>
                        <path class="cls-1" d="M1292.4,629.7c-12.98-.14-37.18-3.49-37.18-3.49"/>
                        <g class="cls-24">
                          <g>
                            <path class="cls-3" d="M1342.54,582.7c1.39,6.24,3.43,19.22,4.29,26.13,.86,6.91,2.07,14.27-2.88,19.68-7.66,8.36-24.44,7.91-36.59,7.05-22.99-1.63-55.02-7.65-77.97-5.56-21.17,1.93-38.64,13.71-56.28,23.14-20.68,11.05-45.34,16.54-69.36,17.59"/>
                            <path class="cls-3" d="M1358.14,622.32c.7,14.67-9.56,29.28-24.76,35.27-15.92,6.27-32.47,4.71-49.34,5-16.71,.29-33.28-2.16-49.33,2.18-18.75,5.08-34.58,20.04-51.53,28.13-17.47,8.34-36.5,14.14-56.1,17.07"/>
                            <path class="cls-3" d="M1349.04,590.93c2.11,7.16,3.54,16.98,3.56,25.12,.01,4.22-.48,8.52-2.45,12.37-3.16,6.16-10.01,10.41-17.34,12.4-7.33,2-15.15,2.01-22.81,1.63-28.49-1.4-57.72-7.86-85.03-.56-19.72,5.27-36.11,17.17-53.81,26.47-21,11.04-44.36,18.57-68.47,22.11"/>
                            <path class="cls-3" d="M1357.63,609.64c3.68,12.01-5.77,29.52-17.97,35.75-12.2,6.23-26.99,7.03-41.07,6.31s-28.15-2.81-42.2-1.74c-19.07,1.45-37.01,8.63-53.47,17.25-13.63,7.13-26.55,15.32-40.63,21.73-22.17,10.11-47,15.64-71.95,16.04"/>
                          </g>
                        </g>
                        <path class="cls-1" d="M1310.9,639.66c7.83-.06,15.87-1.88,22.35-5.84,3.74-2.29,7.05-5.26,8.9-8.93,3.07-6.06,1.82-13.06,.52-19.6-1.38-6.91-2.52-14.45-6.06-20.82-3.23-5.82-7.92-11.27-12.92-15.98"/>
                        <path class="cls-1" d="M1228.34,672.71c-16.5,4.97-32.06,12.38-45.82,21.83"/>
                      </g>
                      <g>
                        <path class="cls-20" d="M1415.21,681.64c-4.39,13.41-12.94,25.62-23.99,35.55-11.42,10.26-25,19.39-40.32,24.57-9.99,3.38-21.43,5.03-32,2.97-12.66-2.47-23.01-12.4-27.16-22.94-5.05-12.82-1.32-25.67,7.75-36.22,11.97-13.92,29.47-22.94,42.9-35.6,6.78-6.39,12.95-13.46,20.99-18.7,15.7-10.25,36.07-6.89,46.02,8.14,8.2,12.39,10.34,28.45,5.82,42.23Z"/>
                        <g class="cls-28">
                          <path class="cls-23" d="M1344.81,734.46c1.32-.87,2.77-1.61,4.2-2.33,2.39-1.2,4.78-2.4,7.17-3.6,1.15-.58,2.32-1.17,3.18-2.06,1.66-1.73,1.75-4.48,.19-6.28-1.29-1.5-3.4-2.23-5.27-3.14-1.87-.91-3.75-2.3-3.9-4.18-.12-1.52,.95-2.92,2.21-3.95,4.08-3.35,10.13-4.03,14.74-6.78,1.39-.83,2.67-1.89,3.27-3.27,.42-.96,.48-2.01,.52-3.04,.06-1.55,.08-3.09,.07-4.64-.02-2.5-.09-5.16,1.38-7.31,2.09-3.04,7.17-3.85,10.45-1.89,3.31,1.99,4.88,5.57,5.69,8.9,.71,2.91,.91,5.9,1.35,8.86,.45,2.97,2.77,4.6,5.95,2.83,4.22-2.35,7.07-6.31,11.38-8.5,1.46-.74,3.25-1.27,4.8-.69,1.55,.57,2.3,2.67,.97,3.58l-2.9,9.84c-.18,5.86-3.52,11.37-7.94,15.75-4.42,4.38-9.91,7.81-15.27,11.28-5.95,3.85-11.85,7.81-18.4,10.79-6.94,3.15-15.82,5.6-23.67,5.22-1.22-.06-2.53-.18-3.48-.86-.81-.57-1.25-1.44-1.54-2.32-1.21-3.64-.11-7.8,2.8-10.59,.62-.6,1.32-1.13,2.05-1.62Z"/>
                          <path class="cls-23" d="M1278.65,690.7c1.5-6.42,6.09-11.91,10.77-17.02,5.45-5.94,11.18-11.68,17.19-17.18l17.51-9.8c1.48-1.28,4.23-.28,5,1.42,.77,1.7,.14,3.62-.69,5.3-2.74,5.55-7.73,10.75-7.07,16.77,.08,.71,.25,1.43,.74,2,.5,.58,1.29,.92,2.08,1.14,2.08,.59,4.3,.52,6.48,.68,2.17,.16,4.46,.62,5.98,2.01,1.52,1.38,1.82,3.92,.12,5.12-.77,.55-1.79,.73-2.77,.89-4.89,.78-9.83,1.27-14.79,1.45-2.19,.08-4.89,.42-5.62,2.24-.55,1.38,.41,2.84,1.31,4.07,1.44,1.96,2.86,3.99,3.51,6.26,.65,2.27,.43,4.84-1.18,6.7-1.61,1.86-4.82,2.69-7.06,1.44-.89-.5-1.57-1.25-2.43-1.79-.86-.54-2.1-.81-2.95-.25-.84,.56-.89,1.63-1.18,2.52-.9,2.8-4.48,4.21-7.75,4.57-3.31,.36-6.77-.01-9.71-1.4-6.55-3.11-8.99-10.7-7.49-17.13Z"/>
                          <path class="cls-23" d="M1404.13,661.61c-1.54-.47-2.25-2.12-2.02-3.54s1.16-2.66,2.03-3.87c2.23-3.09,4.17-7.28,1.64-10.18-1.3-1.49-3.46-2.17-4.99-3.48-2.99-2.57-2.82-7-.9-10.27,2.79-4.76,9.55-7.87,15.21-5.94,3.67,1.25,6.26,4.33,7.4,7.65,1.15,3.32,1.02,6.88,.57,10.33-.29,2.22-.6,4.78,1.16,6.4,.72,.67,1.71,1.06,2.72,1.32,4.88,1.23,11.03-.4,14.54,2.83,2.78,2.55,2.12,6.75,.44,9.96-2.76,5.26-11.01,11.85-17.92,7.56-4.4-2.73-4.24-13.3-11.72-12.11-3.06,.49-5.21,4.23-8.15,3.34Z"/>
                          <path class="cls-23" d="M1329.9,646.93c2.46-1.07,5.46-1.34,7.96-.34,.89,.36,1.71,.88,2.24,1.6,1.06,1.44,.73,3.33,.24,4.99-1.08,3.63-2.79,7.12-5.06,10.3-.98,1.37-2.18,2.76-3.93,3.22-1.54,.4-3.25-.01-4.52-.87-1.27-.86-2.15-2.1-2.75-3.41-2.61-5.7-.59-12.69,5.83-15.48Z"/>
                          <path class="cls-23" d="M1404.46,681.1c.19,.13,.38,.27,.56,.43,2.71,2.28,3.14,6.21-.22,8.29-3.1,1.92-9.31,1.42-9.22-2.78,.08-3.87,4.52-8.88,8.87-5.94Z"/>
                        </g>
                        <path class="cls-7" d="M1354.07,641.61c-2.9,5.67-4.08,12.24-3.34,18.68,.73,6.44,3.38,12.73,7.52,17.89"/>
                        <path class="cls-38" d="M1388.53,636.48c1.89,1.12,3.69,2.42,5.02,4.08,2.92,3.65,3.83,8.36,3.36,12.76-.55,5.1-3.7,9.84-8.1,12.98-5.09,3.62-11.79,4.64-18.13,4.15-5.38-.41-10.99-1.66-15.28-4.76-4.76-3.44-6.23-9.21-4.48-14.33,1.49-4.36,4.59-8.06,7.7-11.62,7.45-8.52,20.01-9.14,29.93-3.26Z"/>
                        <path class="cls-1" d="M1382.58,633.67c-1.31,.32-2.7-.17-3.85-.81-1.94-1.07-3.57-2.57-4.71-4.32"/>
                        <path class="cls-1" d="M1385.01,634.37c-3.75,2.5-9.28,2.7-13.25,.48"/>
                        <path class="cls-1" d="M1387.24,635.74c-2.15,2.11-4.51,4.33-7.65,4.94-.63,.12-1.28,.17-1.93,.18-1.37,.02-2.74-.13-4.06-.45"/>
                        <path class="cls-1" d="M1383.15,653.7c-1.13,.39-2.29,.7-3.47,.93-.48,.09-.97,.17-1.45,.11-.86-.11-1.58-.64-2.13-1.23-.83-.89-1.38-1.98-1.59-3.11"/>
                        <path class="cls-1" d="M1365.71,646.87c-1.25,.6-2.75,.93-4.11,.57-1.37-.35-2.51-1.52-2.37-2.77"/>
                        <path class="cls-1" d="M1386.72,648.61c-.53-1.71-2.11-3.13-4.04-3.63"/>
                        <path class="cls-1" d="M1368.69,639.62c-1.91-.53-4.02-.44-5.86,.25"/>
                        <path class="cls-1" d="M1365.67,651.94c-.6,.12-1.11,.54-1.28,1.05-.17,.52,0,1.11,.43,1.5"/>
                        <path class="cls-26" d="M1371.79,656.35s.06-.02,.08-.03c2.08-.66,4.87,.07,6.51,1.29,1.61,1.19,.6,3.31-.84,4.22-1.77,1.11-4.36,1.03-6.27,.27-.62-.25-1.21-.59-1.6-1.08-1.3-1.66,.2-4.01,2.12-4.67Z"/>
                        <path class="cls-26" d="M1355.5,649.08s.05,0,.07,0c1.86-.07,3.87,1.2,4.81,2.61,.93,1.39-.51,2.94-1.93,3.37-1.74,.53-3.79-.15-5.09-1.24-.42-.35-.79-.78-.95-1.29-.54-1.71,1.35-3.35,3.09-3.46Z"/>
                        <path class="cls-18" d="M1363.6,656.79c1.14-.04,2.21,.86,2.23,1.86,0,.11,0,.23-.07,.33-.16,.26-.56,.28-.89,.26-.57-.03-1.15-.09-1.65-.33-.5-.24-.9-.7-.87-1.2,.03-.59,.74-1.07,1.39-.96"/>
                        <path class="cls-6" d="M1389.74,630.2c5.35,7.64,9.6,16.09,6.91,25.2-3.35,11.35-15.37,17.56-27.36,20.63-18.11,4.64-38.44,3.41-55.93-2.99"/>
                        <g>
                          <path class="cls-38" d="M1362.6,675.68c-.2-2.63-2.15-5.14-4.82-6.17-.87-.34-2.12-.39-2.47,.4-.06,.15-.1,.32-.23,.42-.17,.13-.43,.06-.65,.02-.91-.18-1.89,.09-2.52,.69-.63,.6-.9,1.52-.68,2.35-.78-.23-1.69,0-2.21,.57s-.63,1.42-.28,2.11c-.78-.22-1.57,.43-1.73,1.16-.16,.73,.12,1.49,.41,2.2,.71,1.75,1.67,3.67,3.56,4.34,1.08,.38,2.28,.27,3.39,.06,4.27-.83,8.55-3.61,8.22-8.13Z"/>
                          <path class="cls-2" d="M1354.91,670.17c1.43,.49,2.61,1.62,3.09,2.96"/>
                          <path class="cls-2" d="M1350.99,673.25c1.41,.53,2.58,1.59,3.17,2.88"/>
                          <path class="cls-2" d="M1348.28,676.14c.26,.01,.48,.15,.69,.3,1.03,.73,2.02,1.66,2.49,2.79"/>
                        </g>
                        <g>
                          <path class="cls-38" d="M1342.67,665.01c2.88-.7,5.66-1.11,7.64,.76,.65,.61,1.12,1.64,.39,2.18-.14,.1-.31,.19-.37,.33-.08,.19,.07,.38,.19,.55,.49,.7,.52,1.61,.09,2.33-.44,.72-1.33,1.24-2.29,1.34,.5,.58,.55,1.41,.12,2.03-.43,.62-1.31,1-2.17,.92,.49,.58,.06,1.45-.67,1.83-.73,.37-1.63,.39-2.49,.38-1.64-.01-3.4-.47-4.59-1.5-1.87-1.63-1.46-4.25-.67-6.23,.83-2.09,2.24-4.29,4.82-4.92Z"/>
                          <path class="cls-2" d="M1350.55,668.39c-1-1.03-2.59-1.64-4.18-1.6"/>
                          <path class="cls-2" d="M1348.55,672.66c-1.03-1-2.55-1.62-4.13-1.69"/>
                          <path class="cls-2" d="M1346.34,675.87c-.1-.21-.32-.35-.54-.47-1.12-.62-2.44-1.13-3.8-1.16"/>
                        </g>
                        <path class="cls-6" d="M1332.36,677.8s-1.87-13.76,1.17-20.31"/>
                        <path class="cls-6" d="M1412.3,647.22c1.54,8.71,.77,17.8-2.86,26.1-7.94,18.11-30.19,26.64-51.01,29.86-22.26,3.44-45.56,2.5-67.32-2.33"/>
                        <path class="cls-6" d="M1400.31,707.73c-19.63,14.82-45.04,21.36-70.54,22.21-11.93,.4-22.3,.66-34.09-.84"/>
                      </g>
                      <g>
                        <g>
                          <path class="cls-25" d="M1359.87,705.88c4.22-2.72,9.44-6.15,12.56-9.89,3.06-3.67,6.51-7.18,10.07-10.49,3.92-3.64,9.82-5.68,14.83-7.96,.86-.39,2.51-1.07,3.11-.8,1.11,.49,.53,2.6-.12,3.44-.65,.83-1.08,1.57-2.03,2.43,5.91-2.55,8.26-9.01,13.42-12.59,.62-.43,1.95-1.16,3.45-.96,.82,.11,.82,1.63,.69,2.36,1.08-.36,1.99-1.07,3.16-.96,1.47,.13,2.55,.74,2.25,2.01-.16,.69-.7,2.51-.7,2.51,0,0,1.72,1.32,1.86,1.79,.71,2.3,.36,4.61,0,6.85-.38,2.37-.37,4.77-.73,7.13-1.07,7.01-4.22,11.7-9.54,16.51-5.66,5.13-15.29,12.63-22.25,16.26-2.8,1.46-13.41,9.62-16.29,10.96"/>
                          <path class="cls-1" d="M1398.58,682.52c-4.01,1.68-8.43,2.68-12.97,2.94"/>
                          <path class="cls-1" d="M1415.62,671.15c-2.73,6.45-6.39,13.15-12.01,17.78"/>
                          <path class="cls-1" d="M1420.09,674.82s-.92,3.31-1.46,5.11c-1.69,5.67-5.37,9.79-10.08,14.24"/>
                          <path class="cls-1" d="M1413.12,700.09c1.93-2.31,3.88-4.63,5.21-7.29,1.83-3.67,4.49-13.02,4.49-13.02"/>
                        </g>
                        <path class="cls-44" d="M1246.91,668.95c-3.92,6.1-4.04,13.23-3.45,20.03,.89,10.28,3.78,20.59,8.84,29.9,5.69,10.47,27.85,45.29,53.84,49.63,35.01,5.85,80.8-37.17,80.8-37.17l-24.1-28.15-46.73,12.09-28.6-39.92"/>
                        <path class="cls-17" d="M1272.8,697.98c-2.57,3.87-4.92,7.85-7.03,11.92"/>
                        <path class="cls-17" d="M1266.73,695.31c-1.13,3.8-2.26,7.59-3.38,11.39"/>
                        <path class="cls-17" d="M1263.91,688.02c-1.94,4.25-3.09,8.77-3.37,13.35"/>
                        <path class="cls-17" d="M1266.4,679.71c-4.37,4.27-7.9,9.21-10.36,14.53"/>
                        <path class="cls-17" d="M1256.51,680.04c-1.73,3.41-3.04,6.99-3.89,10.65"/>
                        <polyline class="cls-1" points="1362.62 703.19 1315.9 715.28 1287.3 675.36"/>
                        <path class="cls-1" d="M1252.09,718.89c5.69,10.47,27.85,45.29,53.84,49.63,35.01,5.85,80.8-37.17,80.8-37.17"/>
                        <path class="cls-1" d="M1316.45,715.12c-5.07,2.26-11.11,2.96-15.41,6.23"/>
                      </g>
                    </g>
                    <g>
                      <g>
                        <path class="cls-35" d="M1365.53,714.73c-6.61-.51-14.84-1.21-21.01-3.47-6.06-2.21-12.42-4.04-18.75-5.57-6.97-1.69-14.9-.48-22.05-.06-1.23,.07-3.52,.29-3.98,.93-.84,1.17,1.36,3.14,2.69,3.66,1.33,.53,2.34,1.08,4.01,1.47-8.32,.66-15.69-5.01-23.96-5.91-1-.11-2.98-.13-4.46,.96-.81,.6,.33,2.25,1.01,2.96-1.44,.23-2.96,0-4.15,.78-1.5,1-2.22,2.28-.95,3.49,.69,.66,2.63,2.32,2.63,2.32,0,0-.88,2.44-.69,3.03,.95,2.91,3.04,5.22,5.1,7.44,2.18,2.35,3.95,4.97,6.1,7.33,6.38,7,13.3,10.26,22.66,12.41,9.97,2.29,26.02,4.86,36.29,4.79,4.13-.03,13.62,3.12,17.75,2.91"/>
                        <path class="cls-1" d="M1306.07,711.76c5.62-.5,11.16-1.97,16.28-4.32"/>
                        <path class="cls-1" d="M1279.08,709.28c7.77,5.43,16.73,10.59,26.29,12.37"/>
                        <path class="cls-1" d="M1276.96,715.86s3.47,3.06,5.39,4.71c6.06,5.19,13.13,7.53,21.56,9.64"/>
                        <path class="cls-1" d="M1303.35,739.29c-3.82-1.39-7.66-2.79-11.09-4.91-4.72-2.92-14.58-11.55-14.58-11.55"/>
                      </g>
                      <path class="cls-37" d="M1469.84,634.43l-37.33,85.9-74.26-7.67-16.25,44.11s47.08,17.35,75.98,21.91c31.08,4.9,52.24,10.87,71.37-18.19,18.54-28.15,43.75-85.15,43.75-85.15"/>
                      <path class="cls-1" d="M1489.34,760.48c18.54-28.15,43.75-85.15,43.75-85.15"/>
                      <path class="cls-1" d="M1341.99,756.76s47.08,17.35,75.98,21.91c31.08,4.9,52.24,10.87,71.37-18.19"/>
                      <polyline class="cls-1" points="1469.84 634.43 1432.51 720.32 1358.25 712.66"/>
                      <g>
                        <path class="cls-19" d="M1454.33,644.18c2.17-11.05,5.1-22.4,13.54-31.26,17.3-18.15,47.73-20.94,73.45-16.65,2.45,.41,4.88,.88,7.3,1.4,13.95,3,27.95,7.44,38.53,15.68,2.57,2,4.91,4.21,6.93,6.6,18.9,22.38,26.82,50.97,21.51,77.94-2.7,13.74-10.55,27.39-24.46,35.49-13.91,8.09-34.46,9.22-47.5,.33-10.82-7.37-14.03-19.09-17.98-29.57-4.52-12.02-9.54-23.95-16.12-35.32-4.98-8.6-12.28-17.73-23.79-19.34-7.29-1.02-14.89,1.39-20.52,5.34-4.48,3.15-11.02,14.19-11.02,14.19,0,0-3.19-7.97,.12-24.82Z"/>
                        <g class="cls-40">
                          <g>
                            <path class="cls-9" d="M1535.49,579.7c10.7,15.28,15.15,33.45,12.48,50.97-1.18,7.76-3.71,15.42-3.7,23.23,.01,8.67,3.15,17.41,.94,25.9-1.55,5.93-5.58,11.21-9.32,16.46-7.22,10.13-13.58,20.66-19.03,31.49"/>
                            <path class="cls-9" d="M1507.08,585.52c3.49,2.08,4.71,5.85,5.32,9.36,1.53,8.73,.83,17.61,1.33,26.42,.61,10.72,3.01,21.4,2.06,32.11s-5.91,21.91-16.77,28.03"/>
                            <path class="cls-9" d="M1460.52,599.14c5.7,3.25,9.88,8.21,11.57,13.73,1.66,5.44,1.01,11.43,4.26,16.36,1.48,2.24,3.67,4.11,5.42,6.21,7.42,8.89,6.2,20.73,3.68,31.33"/>
                            <path class="cls-9" d="M1572.36,589.85c1.85,8.37,2.63,16.91,2.32,25.42-.23,6.44-1.08,12.94,.19,19.29,1.04,5.22,3.49,10.17,5.38,15.22,8.31,22.2,5.16,47.96-12.23,66.46-9.18,9.76-21.73,17.09-34.93,23.01"/>
                            <path class="cls-9" d="M1510.38,685.84c7.2,7.52,14.55,15.17,24.17,20.6,8.78,4.96,19.23,7.94,27.12,13.81,4.33,3.22,7.73,7.19,10.71,11.31,7.07,9.76,12.09,20.8,11.95,32.17"/>
                            <path class="cls-9" d="M1499.87,661.66c12.12,7.76,24.47,15.34,37.8,21.63,18.02,8.51,38.07,14.82,52.97,26.68,8.62,6.86,15.2,15.42,19.02,24.74"/>
                            <path class="cls-9" d="M1624.62,681.93c-11.84-10.83-26.79-19.18-42.76-25.59-15.97-6.4-32.98-10.92-50.14-14.81-8.08-1.83-16.4-3.55-24.77-2.93-9.89,.73-19.15,4.75-26.47,10.25-7.32,5.5-12.83,12.44-17.34,19.67"/>
                            <path class="cls-9" d="M1615.66,640.64c-5.9-6.21-14.19-10.7-23.03-13.84-8.83-3.15-18.26-5.04-27.66-6.81-20.25-3.81-41.46-7.1-61.68-3-9.65,1.96-18.7,5.54-27.45,9.41-14.95,6.62-29.6,14.41-39.89,25.46"/>
                          </g>
                        </g>
                        <path class="cls-1" d="M1454.21,669.01c9.9-19.15,34.34-31.07,51.1-33.67,16.39-2.54,33.5-2.89,49.23,1.51"/>
                        <path class="cls-1" d="M1530.32,608.42c-17.66-1.69-32.68,.71-46.49,10.2-15.33,10.53-23.26,25.63-25.93,41.54"/>
                        <path class="cls-1" d="M1519.23,671.03c-7.15-8.28-16.55-15.26-27.34-20.29"/>
                        <path class="cls-10" d="M1554.83,690.66c-7.93,2.06-16.47,2.51-24.63,1.29"/>
                        <path class="cls-10" d="M1550.49,687.34c-8.69,1.02-17.58,.84-26.17-.54"/>
                        <path class="cls-10" d="M1539.85,682.15c-4.89,.33-9.85,.02-14.61-.91"/>
                        <path class="cls-10" d="M1534.85,676.76c-2.57,.17-5.14,.34-7.71,.52"/>
                        <path class="cls-10" d="M1577.92,607.78c-3.75,2.2-7.83,4.03-12.12,5.43-.92,.3-1.87,.59-2.86,.59-1.37,0-2.65-.54-3.85-1.08-4.71-2.14-9.23-4.55-13.75-6.95-2.1-1.12-4.25-2.27-5.77-3.9s-2.33-3.86-1.42-5.78"/>
                        <path class="cls-10" d="M1540.56,599.92c-1.81-.43-3.87-.08-5.33,.89"/>
                      </g>
                      <path class="cls-1" d="M1432.51,720.32c4.52,.97,9.53,1.04,14.05,2.01,5.76,1.24,11.29,3.49,15.65,6.88"/>
                      <g>
                        <path class="cls-8" d="M1514.15,699.77c-4.05-7.39-9.59-14.15-16.27-19.86"/>
                        <path class="cls-8" d="M1509.2,702.45c-1.62-5.01-5.19-9.32-8.69-13.52"/>
                        <path class="cls-8" d="M1500.99,695.97c2.16,4.99,3.25,10.33,3.2,15.67"/>
                        <path class="cls-8" d="M1502.32,718.51c-3.09-7-7.75-13.46-13.63-18.89"/>
                        <path class="cls-8" d="M1500.07,722.98c-1.81-4.65-4.97-8.88-9.1-12.18"/>
                        <path class="cls-8" d="M1497.36,728.62c.24-2.31-.6-4.69-2.29-6.47"/>
                        <path class="cls-8" d="M1407.35,742.42c-5.58,7.3-12.93,13.55-21.41,18.2"/>
                        <path class="cls-8" d="M1398.85,740.92c-4.24,5.85-9.8,10.96-16.27,14.92"/>
                        <path class="cls-8" d="M1382.12,743.37c-2.1,4.39-4.57,8.65-7.38,12.72"/>
                        <path class="cls-8" d="M1376.87,744.29c-1.61,4.39-4.37,8.45-7.99,11.78"/>
                        <path class="cls-8" d="M1417.31,751.41c-3.88,1.76-7.61,3.78-11.15,6.03"/>
                      </g>
                    </g>
                  </g>
                  <g>
                    <path class="cls-22" d="M1253.93,735.35c0,.93-.85,1.68-1.9,1.68s-1.9-.75-1.9-1.68c0-.93,.85-1.68,1.9-1.68s1.9,.75,1.9,1.68Z"/>
                    <path class="cls-22" d="M1136.73,650.43c0,.93-.85,1.68-1.9,1.68s-1.9-.75-1.9-1.68c0-.93,.85-1.68,1.9-1.68s1.9,.75,1.9,1.68Z"/>
                    <path class="cls-22" d="M1364.1,607.54c0,.93-.85,1.68-1.9,1.68s-1.9-.75-1.9-1.68,.85-1.68,1.9-1.68,1.9,.75,1.9,1.68Z"/>
                    <path class="cls-22" d="M1474.97,529.78c0,.93-.85,1.68-1.9,1.68s-1.9-.75-1.9-1.68c0-.93,.85-1.68,1.9-1.68s1.9,.75,1.9,1.68Z"/>
                    <path class="cls-18" d="M1504.9,528.11c0,.93-.85,1.68-1.9,1.68s-1.9-.75-1.9-1.68,.85-1.68,1.9-1.68,1.9,.75,1.9,1.68Z"/>
                    <path class="cls-18" d="M1476.87,564.85c0,.93-.85,1.68-1.9,1.68s-1.9-.75-1.9-1.68c0-.93,.85-1.68,1.9-1.68s1.9,.75,1.9,1.68Z"/>
                    <path class="cls-18" d="M1255.83,556.06c0,.93-.85,1.68-1.9,1.68s-1.9-.75-1.9-1.68,.85-1.68,1.9-1.68,1.9,.75,1.9,1.68Z"/>
                    <ellipse class="cls-22" cx="1313.67" cy="544.87" rx="3.16" ry="2.79"/>
                    <ellipse class="cls-22" cx="1369.23" cy="583.87" rx="3.16" ry="2.79"/>
                    <ellipse class="cls-22" cx="1122.93" cy="733.67" rx="4.02" ry="3.55"/>
                    <ellipse class="cls-22" cx="1516.51" cy="559.62" rx="4.02" ry="3.55"/>
                    <ellipse class="cls-18" cx="1385.16" cy="491.78" rx="2.13" ry="1.88"/>
                    <path class="cls-18" d="M1244.29,747.99c0,1.04-.95,1.88-2.13,1.88s-2.13-.84-2.13-1.88,.95-1.88,2.13-1.88,2.13,.84,2.13,1.88Z"/>
                    <path class="cls-18" d="M1149.24,639.52c0,1.74-1.6,3.16-3.58,3.16s-3.58-1.41-3.58-3.16,1.6-3.16,3.58-3.16,3.58,1.41,3.58,3.16Z"/>
                    <path class="cls-18" d="M1186.15,758.3c0,1.74-1.6,3.16-3.58,3.16-1.98,0-3.58-1.41-3.58-3.16s1.6-3.16,3.58-3.16,3.58,1.41,3.58,3.16Z"/>
                    <ellipse class="cls-18" cx="1453.95" cy="508.86" rx="3.58" ry="3.16"/>
                    <path class="cls-18" d="M1239.05,592.06c0,1.74-1.6,3.16-3.58,3.16s-3.58-1.41-3.58-3.16,1.6-3.16,3.58-3.16,3.58,1.41,3.58,3.16Z"/>
                  </g>
                </g>
              </g>
              <rect class="cls-16" x="0" y="-.4" width="1537.97" height="761.4"/>
            </g>
            <g>
              <rect class="cls-15" x="17.96" y="683.31" width="140.06" height="62.12" rx="12" ry="12"/>
              <text class="cls-11" transform="translate(42.52 732.22) scale(1.13 1)"><tspan x="0" y="0">Back</tspan></text>
            </g>
          </g>
        </g>
        <text class="cls-12" transform="translate(372.33 202.17)"><tspan x="0" y="0">Choose version</tspan></text>
      </g>
      <g>
        <rect class="cls-4" x="804.05" y="276.54" width="395.58" height="274.6" rx="12" ry="12"/>
        <rect class="cls-4" x="338.35" y="276.54" width="395.58" height="274.6" rx="12" ry="12"/>
      </g>
    </g>
  </g>
</svg>