<?xml version="1.0" encoding="UTF-8"?>
<svg id="Layer_2" data-name="Layer 2" xmlns="http://www.w3.org/2000/svg" xmlns:xlink="http://www.w3.org/1999/xlink" viewBox="0 0 1537.97 765">
  <defs>
    <style>
      .cls-1, .cls-2, .cls-3, .cls-4, .cls-5, .cls-6, .cls-7, .cls-8, .cls-9, .cls-10, .cls-11, .cls-12, .cls-13, .cls-14, .cls-15 {
        stroke-miterlimit: 10;
      }

      .cls-1, .cls-2, .cls-3, .cls-4, .cls-5, .cls-6, .cls-7, .cls-10, .cls-11, .cls-16, .cls-12, .cls-14, .cls-17 {
        fill: none;
      }

      .cls-1, .cls-2, .cls-4, .cls-12, .cls-14, .cls-17 {
        stroke-width: 1.5px;
      }

      .cls-1, .cls-5, .cls-8, .cls-9, .cls-13 {
        stroke: #000;
      }

      .cls-2, .cls-10 {
        stroke: #eda45e;
      }

      .cls-18 {
        fill: #fff;
      }

      .cls-19 {
        fill: #fdc27f;
      }

      .cls-20, .cls-9, .cls-13 {
        fill: #fff8e8;
      }

      .cls-3 {
        stroke: #ffe6c7;
        stroke-width: 5px;
      }

      .cls-4 {
        stroke: #f2dfb6;
      }

      .cls-21 {
        fill: #fc9335;
      }

      .cls-6 {
        stroke: #da9971;
      }

      .cls-6, .cls-9, .cls-13, .cls-15 {
        stroke-width: 2px;
      }

      .cls-22 {
        fill: #ce783c;
      }

      .cls-23 {
        fill: #eda45e;
      }

      .cls-23, .cls-11 {
        opacity: .35;
      }

      .cls-24 {
        clip-path: url(#clippath-2);
      }

      .cls-25 {
        fill: #f0bb83;
      }

      .cls-7 {
        stroke: #fd9f50;
        stroke-width: 4px;
      }

      .cls-26 {
        clip-path: url(#clippath-6);
      }

      .cls-27 {
        fill: #230b07;
      }

      .cls-8 {
        fill: #a39581;
        stroke-width: 3px;
      }

      .cls-28 {
        clip-path: url(#clippath-7);
      }

      .cls-29 {
        clip-path: url(#clippath-1);
      }

      .cls-30 {
        clip-path: url(#clippath-4);
      }

      .cls-31 {
        fill: #be5c39;
      }

      .cls-32 {
        fill: #b2473b;
      }

      .cls-11 {
        stroke: #a88455;
        stroke-width: 13px;
      }

      .cls-33 {
        fill: #fad1b0;
      }

      .cls-34 {
        fill: #d0704a;
      }

      .cls-35 {
        clip-path: url(#clippath);
      }

      .cls-36 {
        fill: #fdedd9;
      }

      .cls-37 {
        clip-path: url(#clippath-3);
      }

      .cls-12 {
        stroke: #521a19;
      }

      .cls-13 {
        font-size: 48.61px;
      }

      .cls-13, .cls-15 {
        font-family: GlueGun, 'Glue Gun';
      }

      .cls-38 {
        fill: #6b2925;
      }

      .cls-39 {
        clip-path: url(#clippath-5);
      }

      .cls-40 {
        fill: #c65e32;
      }

      .cls-41 {
        fill: #c2a775;
      }

      .cls-14 {
        stroke: #9f8253;
      }

      .cls-42 {
        fill: #ffe6c7;
      }

      .cls-17 {
        stroke: #7d2b26;
        stroke-linejoin: round;
      }

      .cls-15 {
        fill: #383219;
        font-size: 146.59px;
        stroke: #262617;
      }
    </style>
    <clipPath id="clippath">
      <rect class="cls-16" width="1537.97" height="765"/>
    </clipPath>
    <clipPath id="clippath-1">
      <rect class="cls-16" x=".02" y="-.4" width="1537.97" height="765"/>
    </clipPath>
    <clipPath id="clippath-2">
      <rect class="cls-16" x=".02" y=".4" width="1537.97" height="763.39"/>
    </clipPath>
    <clipPath id="clippath-3">
      <rect class="cls-16" x="1059.79" y="435.91" width="608.65" height="358.81" transform="translate(2728.23 1230.64) rotate(180)"/>
    </clipPath>
    <clipPath id="clippath-4">
      <path class="cls-16" d="M1253.09,634.39c4.68-17.85,5.03-36.91,14.29-53.29,2.33-4.13,5.24-8.05,9.07-11.19,4.26-3.5,9.5-5.9,14.68-8.25,5.99-2.71,14.7-2.87,21.22-1.88,12.71,1.93,23.77,10.67,27.36,21.62,1.83,5.58,1.83,11.49,1.81,17.3-.75-4.25-2.52-8.35-5.13-11.98-2.57-3.58-5.94-5.81-9.97-8.06-2.81-1.57-6.05-2.93-9.33-2.45-10.43,1.52-16.07,11.3-17.83,19.64-1.2,5.72-2.03,11.21-2.66,17-.52,4.78-1.03,9.58-2.3,14.24-1.6,5.88-4.54,11.41-8.47,16.36-2,2.52-4.79,4.64-6.68,7.18-.73,.98-.77,2.15-1.45,3.13-.85,1.23-2.48,1.95-3.91,2.54-8.63,3.59-18.63,6.51-27.53,3.48-.88-.3-1.82-.74-2.09-1.53-.19-.57,0-1.17,.22-1.73,1.14-2.97,2.69-5.8,4.02-8.71,1.99-4.36,3.48-8.86,4.68-13.44Z"/>
    </clipPath>
    <clipPath id="clippath-5">
      <path class="cls-16" d="M1338.82,579.12c4.52,11.62,15.64,27.5,19.02,41.02,1.79,7.13,1.74,14.62-.13,21.73-.85,3.24-2.1,6.43-4.05,9.28-12,17.5-43.91,17.48-64.08,17.27-19.57-.2-39.83-1.13-57.97,5.36-7.61,2.73-14.83,6.26-20.97,11.11-4.97,3.93-9.41,8.44-14.93,11.8-5.88,3.57-12.09,6.67-18.49,9.48-9.41,4.13-19.53,6.8-29.59,9.45-3.3-7.93-33.61-47.62-33.61-47.62,0,0,14.1-2.53,25.08-5.44,16.63-4.41,31.18-13.27,46.19-20.98,11.46-5.89,23.91-11.37,37.14-13.22,13.77-1.93,28.21-.66,41.82,1.63,13.83,2.33,28.01,2.1,41.96,3.59,8.36,.89,16.96,2.25,25.1,.34,3.8-.89,7.49-2.57,9.92-5.3,2.99-3.37,3.71-7.91,3.5-12.19-.24-4.86-1.53-9.62-2.82-14.35-2.07-7.61-4.14-15.23-6.21-22.84"/>
    </clipPath>
    <clipPath id="clippath-6">
      <path class="cls-16" d="M1415.23,684.23c-4.39,13.44-12.94,25.69-23.99,35.65-11.42,10.29-25,19.44-40.32,24.64-9.99,3.39-21.43,5.04-32,2.98-12.66-2.48-23.01-12.43-27.16-23-5.05-12.86-1.32-25.74,7.75-36.31,11.97-13.96,29.47-23,42.9-35.7,6.78-6.41,12.95-13.49,20.99-18.75,15.7-10.28,36.07-6.91,46.02,8.16,8.2,12.43,10.34,28.52,5.82,42.34Z"/>
    </clipPath>
    <clipPath id="clippath-7">
      <path class="cls-16" d="M1454.35,646.67c2.17-11.08,5.1-22.46,13.54-31.34,17.3-18.19,47.73-20.99,73.45-16.7,2.45,.41,4.88,.88,7.3,1.4,13.95,3.01,27.95,7.46,38.53,15.72,2.57,2.01,4.91,4.22,6.93,6.62,18.9,22.44,26.82,51.1,21.51,78.15-2.7,13.78-10.55,27.46-24.46,35.58s-34.46,9.24-47.5,.33c-10.82-7.39-14.03-19.14-17.98-29.65-4.52-12.05-9.54-24.01-16.12-35.41-4.98-8.62-12.28-17.78-23.79-19.39-7.29-1.02-14.89,1.39-20.52,5.36-4.48,3.16-11.02,14.23-11.02,14.23,0,0-3.19-7.99,.12-24.89Z"/>
    </clipPath>
  </defs>
  <g id="Layer_1-2" data-name="Layer 1">
    <g>
      <g class="cls-35">
        <g>
          <g>
            <rect class="cls-42" y=".8" width="1537.97" height="763.39"/>
            <rect class="cls-42" x=".02" y="-.4" width="1537.97" height="765"/>
            <g class="cls-29">
              <path class="cls-36" d="M414.2,146.22c-7.18-4.14-14.05-8.87-22.58-11.19-8.53-2.32-19.47-1.48-24.76,4.02-14.17-12.65-12.51-32.98-29.15-43.82-17.07-11.11-43.44-6.25-64.35,.26-2.57,.8-5.35,1.63-8.06,1.18-4.43-.74-6.57-4.4-8.33-7.53-11.16-19.78-34.42-35.71-62.07-41.64-13.81-2.96-28.57-3.34-42.66-1.29-4.27-3.29-8.8-6.4-13.58-9.27-16.04-9.65-36.52-17.01-56.78-14.22-20.27,2.79-37.49,19.26-30.04,33.6,3.51,6.76,11.39,11.65,19.11,16.05,92.1,52.44,205.97,79.77,320.3,93.79,28.19,3.46,57.39,6.14,85.05,.81-22.5-3.13-43.98-10.3-62.1-20.74Z"/>
              <g>
                <polygon class="cls-33" points="-84.44 359.32 14.36 384.18 25.36 464.04 69.1 449.23 143.28 167.48 230.7 173.89 201.38 417.81 274.51 422.61 259.77 260.83 338.24 249.2 365.68 319.69 542.82 308.35 612.13 445.46 690.82 438.96 717.09 353.92 973.4 334.52 1039.02 454.97 1092.4 445.46 1187.26 290.22 1229.73 298.28 1222.02 367.62 1281.28 356.27 1321.77 662.48 1412.52 681.44 1422.21 367.62 1463.55 355.09 1443.43 277.5 1572.19 231.46 1767.3 763.23 -227.17 763.23 -84.44 359.32"/>
                <polygon class="cls-42" points="215.43 200.24 202.48 199.53 203.44 189.86 216.39 190.58 215.43 200.24"/>
                <polygon class="cls-42" points="185.83 192.14 172.88 191.42 173.84 181.76 186.79 182.47 185.83 192.14"/>
                <polygon class="cls-42" points="203.74 300.3 190.79 299.58 191.75 289.91 204.7 290.63 203.74 300.3"/>
                <polygon class="cls-42" points="212.67 228.01 199.71 227.3 200.68 217.63 213.63 218.35 212.67 228.01"/>
                <polygon class="cls-42" points="155.64 210.11 142.68 209.4 143.65 199.73 156.6 200.45 155.64 210.11"/>
                <polygon class="cls-42" points="184.24 208.09 171.29 207.37 172.25 197.71 185.21 198.43 184.24 208.09"/>
                <polygon class="cls-42" points="182.66 224.04 169.7 223.33 170.67 213.66 183.62 214.38 182.66 224.04"/>
                <polygon class="cls-42" points="176.61 284.82 163.66 284.1 164.62 274.43 177.57 275.15 176.61 284.82"/>
                <polygon class="cls-42" points="210.7 247.8 197.74 247.09 198.71 237.42 211.66 238.14 210.7 247.8"/>
                <polygon class="cls-42" points="148.95 258.42 136 257.7 136.96 248.04 149.91 248.75 148.95 258.42"/>
                <polygon class="cls-42" points="136.16 325.07 123.2 324.35 124.17 314.69 137.12 315.41 136.16 325.07"/>
                <line class="cls-3" x1="282.99" y1="279.62" x2="296.72" y2="380.1"/>
                <line class="cls-3" x1="309.27" y1="273.95" x2="319.83" y2="319.69"/>
                <line class="cls-3" x1="323.14" y1="337.57" x2="329.08" y2="361.99"/>
                <line class="cls-3" x1="1202.85" y1="314.73" x2="1186.12" y2="355.09"/>
                <line class="cls-3" x1="1180.42" y1="365.4" x2="1163.7" y2="405.76"/>
                <polygon class="cls-42" points="1514.08 276.55 1464.03 293.87 1459.48 286.56 1509.54 269.24 1514.08 276.55"/>
                <polygon class="cls-42" points="1524.04 292.57 1473.98 309.89 1469.44 302.58 1519.5 285.27 1524.04 292.57"/>
                <polygon class="cls-42" points="1533.3 322.75 1483.24 340.06 1478.7 332.76 1528.76 315.44 1533.3 322.75"/>
                <polygon class="cls-42" points="1541.31 340.32 1491.26 357.64 1486.71 350.33 1536.77 333.01 1541.31 340.32"/>
                <polygon class="cls-42" points="1570.54 257.01 1536.71 268.72 1532.17 261.41 1566 249.71 1570.54 257.01"/>
              </g>
              <g>
                <path class="cls-6" d="M-157.53,416.63c-13.71-46.08-12.23-95.05,4.25-140.53,10.62-29.29,31.82-60.23,68.43-67.59,51.25-10.32,95.27,30.44,119.63,68.37,19.73,30.72,31.06,58.38,48.02,89.91,17.99,33.44,38.15,74.22,39.43,110.74,.4,11.5-3.95,23.84-22.19,25.06-10.81,.72-21.4-3.37-29.08-9.09-33.85-25.2-33.49-63.49-35.78-96.58-2.06-29.84,.41-59.85,6.26-89.4,8.38-42.32,39-80.76,98.44-75.4,42.6,3.84,77.94,26.41,103.59,53.04,60.2,62.52,89.09,143.38,102.66,220.69,1.6,9.13,2.82,18.65-.75,27.41-3.58,8.76-13.25,16.54-24.64,16.47-12.87-.08-22.42-9.42-29.3-18.22-29.92-38.26-46.7-83.18-47.98-128.45-.64-22.54,2.66-45.61,14.66-65.95,12-20.35,33.61-37.73,60.53-43.54,29.49-6.36,61.7,1.93,85.7,17.18,24,15.25,40.81,36.72,54.24,58.89,32.66,53.94,47.81,114.74,43.54,174.71-.93,13.07-5.29,28.78-20.68,32.82-11.25,2.95-23.83-2.39-30.61-10.23-6.78-7.84-8.99-17.63-10.56-27.12-6.95-41.92-.96-91.11,41.33-115.96,37.03-21.76,90.77-16.14,128.78,4.47,34.79,18.86,56.83,46.93,77.24,75.76,22.25,31.43,41.87,65.34,44.94,102,1.08,12.86-1.09,27.66-14.03,35.17-13.15,7.63-32.46,3.98-44.53-4.75-37.03-26.77-35.87-77.53-20.32-112.16,18.61-41.46,69.68-66.52,124.07-58.49,44.25,6.53,81.89,32.06,104.89,63.35,16.11,21.92,27.74,46.44,33.56,71.52,4.33,18.66,17.25,58.05-10.99,68.83-9.11,3.48-20.53-.59-26.31-7.26-5.78-6.67-7.1-15.2-7.28-23.35-1.02-46.38,11.64-96.24,45.23-134.65,12.84-14.69,30.05-28.8,48.75-38.56,42.81-22.34,80.97-.11,93.16,36.06,13.92,41.27-4.01,92.12-33.64,126.09-4.01,4.6-8.51,9.17-14.66,11.81-6.15,2.64-14.35,2.9-19.62-.78-5.45-3.8-6.21-10.31-6.3-16.14-1.34-83.77,64.1-189.35,174.69-207.74,21.68-3.61,45.29-3.86,64.81,4.59,31.31,13.54,43.34,45.33,43.69,74.06,.55,45.11-23.46,133.34-59.07,123.15-32.51-9.3,25.57-110.33,32.83-123.17,34.7-61.37,81.27-125.56,156.02-159.48,15.79-7.16,33.9-13.17,51.6-10.1,18.59,3.22,32.86,16.2,39.27,30.69,6.4,14.48,6.09,30.32,4.25,45.63-6.75,56.21-32.91,109.89-66.03,159.61-9.79,14.7-21.24,29.93-39.75,37.32-4.84,1.93-10.4,3.27-15.62,2.15-12.93-2.78-14.49-17.02-12.61-27.73,13.49-76.75,63.05-145.42,121.66-205.34,40.54-41.45,136.92-146.06,212.33-93.38,28.54,19.94,26.16,56.05,17.23,85.69-21.89,72.65-88.07,190.31-134.97,192.68-46.89,2.37,45.01-144.6,103.52-203.27,45.1-45.22,97.43-90.9,167.13-104.9,69.7-14,157.84,19.79,162.65,77.77"/>
                <g>
                  <line class="cls-6" x1="97.75" y1="226.91" x2="114.06" y2="241.03"/>
                  <line class="cls-6" x1="103.18" y1="244.04" x2="108.96" y2="223.96"/>
                </g>
                <g>
                  <line class="cls-6" x1="242.21" y1="273.89" x2="243.13" y2="293.09"/>
                  <line class="cls-6" x1="232.42" y1="289.74" x2="253.14" y2="277.47"/>
                </g>
                <g>
                  <line class="cls-6" x1="256.06" y1="400.98" x2="234.58" y2="409.63"/>
                  <line class="cls-6" x1="233.95" y1="400.45" x2="256.53" y2="410.4"/>
                </g>
                <g>
                  <line class="cls-6" x1="383.59" y1="291.02" x2="384.38" y2="310.22"/>
                  <line class="cls-6" x1="373.69" y1="306.82" x2="394.49" y2="294.64"/>
                </g>
                <g>
                  <line class="cls-6" x1="529.2" y1="401.05" x2="540.03" y2="418.2"/>
                  <line class="cls-6" x1="528.54" y1="418.71" x2="541" y2="400.67"/>
                </g>
                <g>
                  <line class="cls-6" x1="450.01" y1="535.41" x2="433.55" y2="549.43"/>
                  <line class="cls-6" x1="429.01" y1="540.98" x2="454.5" y2="544.14"/>
                </g>
                <g>
                  <line class="cls-6" x1="653.54" y1="449.6" x2="648.37" y2="468.37"/>
                  <line class="cls-6" x1="639.06" y1="462.97" x2="662.99" y2="455.26"/>
                </g>
                <g>
                  <line class="cls-6" x1="971.87" y1="470.46" x2="948.64" y2="465.48"/>
                  <line class="cls-6" x1="955.83" y1="458.3" x2="964.36" y2="477.74"/>
                </g>
                <g>
                  <line class="cls-6" x1="1233.19" y1="414.05" x2="1227.96" y2="432.81"/>
                  <line class="cls-6" x1="1218.66" y1="427.39" x2="1242.61" y2="419.74"/>
                </g>
                <g>
                  <line class="cls-6" x1="1271.55" y1="554.1" x2="1247.89" y2="557.54"/>
                  <line class="cls-6" x1="1250.53" y1="548.59" x2="1268.66" y2="563.25"/>
                </g>
                <g>
                  <line class="cls-6" x1="1368.42" y1="360.06" x2="1345.68" y2="353.82"/>
                  <line class="cls-6" x1="1353.46" y1="347.04" x2="1360.31" y2="366.91"/>
                </g>
                <g>
                  <line class="cls-6" x1="1495.15" y1="446.74" x2="1472.11" y2="452.25"/>
                  <line class="cls-6" x1="1473.5" y1="443.12" x2="1493.54" y2="456.09"/>
                </g>
                <g>
                  <line class="cls-6" x1="1050.28" y1="607.69" x2="1027.05" y2="602.71"/>
                  <line class="cls-6" x1="1034.24" y1="595.53" x2="1042.77" y2="614.97"/>
                </g>
                <g>
                  <line class="cls-6" x1="1107.69" y1="440.14" x2="1084.46" y2="435.16"/>
                  <line class="cls-6" x1="1091.64" y1="427.98" x2="1100.18" y2="447.42"/>
                </g>
                <g>
                  <line class="cls-6" x1="1412.52" y1="469.06" x2="1389.29" y2="464.08"/>
                  <line class="cls-6" x1="1396.48" y1="456.9" x2="1405.01" y2="476.34"/>
                </g>
                <g>
                  <line class="cls-6" x1="832.4" y1="472.87" x2="827.23" y2="491.64"/>
                  <line class="cls-6" x1="817.92" y1="486.23" x2="841.84" y2="478.53"/>
                </g>
                <g>
                  <line class="cls-6" x1="71.72" y1="371.11" x2="93.19" y2="362.46"/>
                  <line class="cls-6" x1="93.83" y1="371.64" x2="71.25" y2="361.68"/>
                </g>
                <g>
                  <line class="cls-6" x1="39.11" y1="467.17" x2="52.69" y2="451.06"/>
                  <line class="cls-6" x1="58.83" y1="458.69" x2="32.96" y2="459.26"/>
                </g>
                <g>
                  <line class="cls-6" x1="23.07" y1="276.15" x2="32.26" y2="258.39"/>
                  <line class="cls-6" x1="40.25" y1="265.01" x2="15.01" y2="269.25"/>
                </g>
              </g>
              <g>
                <g>
                  <path class="cls-6" d="M501.56,681.69c-16.11,18.26-27.74,38.69-33.56,59.58-4.33,15.54-17.25,48.36,10.99,57.34,9.11,2.9,20.53-.49,26.31-6.05,5.78-5.56,7.1-12.66,7.28-19.45,1.02-38.63-11.64-80.17-45.23-112.17-12.84-12.24-30.05-23.99-48.75-32.12-42.81-18.61-80.97-.09-93.16,30.03-13.92,34.38,4.01,76.74,33.64,105.03,4.01,3.83,8.51,7.64,14.66,9.84,6.15,2.2,14.35,2.41,19.62-.65,5.45-3.17,6.21-8.59,6.3-13.44,1.34-69.78-64.1-157.73-174.69-173.05-21.68-3-45.29-3.21-64.81,3.82-31.31,11.28-43.34,37.76-43.69,61.69-.56,37.58,23.46,111.07,59.07,102.58,32.51-7.75-25.57-91.9-32.83-102.6-34.7-51.12-81.27-104.59-156.03-132.85-35.84-13.55-80.43-11.55-93.17,21.84-5,13.11-3.28,27.09-.38,40.54,9.97,46.38,33.52,91.11,68.53,130.15,8.62,9.61,18.28,19.13,31.57,25.08,7.73,3.46,18.13,5.44,25.4,1.47,7.64-4.16,7.89-12.5,6.76-19.5-2.77-17.18-9.34-33.89-16.77-50.28-25.03-55.15-56.85-112.34-106.99-157.66-49.04-44.33-138.58-84.16-210.04-42.58-28.54,16.61-26.16,46.69-17.23,71.38,21.89,60.52,88.07,158.53,134.97,160.5,46.89,1.97-45.01-120.46-103.52-169.33-45.1-37.67-97.43-75.72-167.13-87.38-69.7-11.66-157.84,16.48-162.65,64.78"/>
                  <g>
                    <line class="cls-6" x1="412.34" y1="632.76" x2="435.57" y2="628.61"/>
                    <line class="cls-6" x1="428.39" y1="622.62" x2="419.85" y2="638.82"/>
                  </g>
                  <g>
                    <line class="cls-6" x1="151.03" y1="585.77" x2="156.26" y2="601.39"/>
                    <line class="cls-6" x1="165.55" y1="596.87" x2="141.6" y2="590.5"/>
                  </g>
                  <g>
                    <line class="cls-6" x1="112.66" y1="702.43" x2="136.32" y2="705.29"/>
                    <line class="cls-6" x1="133.68" y1="697.84" x2="115.55" y2="710.05"/>
                  </g>
                  <g>
                    <line class="cls-6" x1="15.79" y1="540.79" x2="38.54" y2="535.59"/>
                    <line class="cls-6" x1="30.75" y1="529.94" x2="23.9" y2="546.49"/>
                  </g>
                  <g>
                    <line class="cls-6" x1="310.79" y1="702.87" x2="333.81" y2="707.61"/>
                    <line class="cls-6" x1="331.4" y1="699.79" x2="313.43" y2="710.89"/>
                  </g>
                  <g>
                    <line class="cls-6" x1="276.52" y1="607.5" x2="299.76" y2="603.35"/>
                    <line class="cls-6" x1="292.57" y1="597.37" x2="284.03" y2="613.56"/>
                  </g>
                </g>
                <g>
                  <path class="cls-6" d="M1738.66,742.94c13.71-38.38,12.23-79.18-4.26-117.06-10.62-24.4-31.82-50.17-68.43-56.31-51.25-8.59-95.27,25.36-119.63,56.95-27.42,35.56-48.67,73.33-62.46,112.32-10.32,29.17-21.69,61.64-18.41,91.84,.6,5.5,3.57,12.17,11.62,13.18,15.84,1.98,32.79-15.63,37.35-23.77,29.81-53.27,38.61-111.82,25.25-168.04-8.38-35.25-39-67.27-98.44-62.81-42.6,3.2-77.94,22-103.59,44.19-60.2,52.08-89.09,119.44-102.66,183.84-1.6,7.61-2.82,15.53,.75,22.83,3.58,7.29,13.25,13.78,24.64,13.72,12.87-.07,22.42-7.85,29.3-15.18,29.92-31.87,46.7-69.29,47.98-107,.64-18.78-2.66-37.99-14.66-54.94-12-16.95-33.61-31.43-60.53-36.27-29.49-5.3-61.7,1.61-85.7,14.31-24,12.71-40.81,30.59-54.24,49.06-32.66,44.93-47.81,95.58-43.54,145.53,.93,10.89,5.29,23.97,20.68,27.34,11.25,2.46,23.83-1.99,30.61-8.52,6.78-6.53,8.99-14.69,10.56-22.59,6.95-34.92,.96-75.89-41.33-96.6-37.03-18.13-90.77-13.44-128.78,3.73-34.79,15.71-56.83,39.1-77.24,63.11-22.25,26.18-41.87,54.43-44.94,84.97-1.08,10.71,1.09,23.04,14.03,29.3,13.15,6.36,32.46,3.31,44.53-3.95,37.03-22.3,35.87-64.58,20.32-93.43-18.61-34.53-69.68-55.41-124.07-48.72-44.25,5.44-81.89,26.71-104.89,52.77"/>
                  <g>
                    <line class="cls-6" x1="1483.39" y1="584.9" x2="1467.07" y2="596.66"/>
                    <line class="cls-6" x1="1477.95" y1="599.17" x2="1472.17" y2="582.44"/>
                  </g>
                  <g>
                    <line class="cls-6" x1="1403.99" y1="588.67" x2="1403.07" y2="604.66"/>
                    <line class="cls-6" x1="1413.79" y1="601.87" x2="1393.07" y2="591.65"/>
                  </g>
                  <g>
                    <line class="cls-6" x1="1325.07" y1="729.9" x2="1346.55" y2="737.11"/>
                    <line class="cls-6" x1="1347.18" y1="729.46" x2="1324.6" y2="737.76"/>
                  </g>
                  <g>
                    <line class="cls-6" x1="1131.62" y1="684.59" x2="1130.84" y2="700.58"/>
                    <line class="cls-6" x1="1141.53" y1="697.75" x2="1120.72" y2="687.6"/>
                  </g>
                  <g>
                    <line class="cls-6" x1="1051.93" y1="729.96" x2="1041.1" y2="744.25"/>
                    <line class="cls-6" x1="1052.59" y1="744.68" x2="1040.13" y2="729.65"/>
                  </g>
                  <g>
                    <line class="cls-6" x1="1509.42" y1="705.02" x2="1487.94" y2="697.82"/>
                    <line class="cls-6" x1="1487.3" y1="705.46" x2="1509.89" y2="697.17"/>
                  </g>
                </g>
              </g>
              <g>
                <path class="cls-33" d="M515.25,23.96c-1.8-1.77-3.9-3.32-6.19-4.69,10.1-5.97,17.18-16.61,13.23-25.45-9.11-20.42-45.2-32.79-72.55-27.29-14.84,2.99-27.02,12.38-30.52,23.55-.73,2.32-1.07,4.74-.99,7.13-9.3-.6-18.8,1.06-27.43,3.82-11.14,3.56-21.44,9.11-27.86,16.79-6.42,7.67-8.52,17.62-3.79,25.95-9.59-4.85-22.51-7.49-32.73-3.42-19.78,7.87-14.65,30.54-4.56,42.2-10.26-4.19-24.1,.98-28.74,8.99-4.64,8.01-1.91,17.46,3.65,25.14-9.78-2.51-21.69,3.31-22.52,11-.47,4.34,2.04,8.52,4.49,12.47-3.64-.54-7.28-1.08-10.92-1.63-.98-.15-2.01-.29-2.96-.04-1.18,.31-1.94,1.15-2.51,1.98-4.08,5.99-1.88,13.35,2.24,19.33-4.75-1.76-11.05-.69-14.32,2.42-3.27,3.11-3.16,7.93,.26,10.96-6.23-2.26-14.39-1.8-19.38,1.79-4.98,3.59-5.55,10.34-.47,13.86,5.08,3.52,14.96,2,16.95-2.95,3.84,2.82,9.07,4.87,14.43,4.53,5.37-.35,10.51-3.67,10.49-7.69,7.63,4.71,19.25,6.42,27.57,2.41,8.32-4.01,10.21-14.43,2.19-18.77,6.88,1.97,15.05,2.29,21.31-.62,6.26-2.91,9.45-9.63,5.43-14.24,6.84,3.3,14.4,6.01,22.48,6.69,8.09,.68,16.8-.89,22.58-5.17,5.78-4.28,7.84-11.48,3.66-16.69,7.03,2.62,15.19,4.33,22.75,2.71,7.56-1.61,13.82-7.49,11.96-13.18,4.75,4.11,13.52,5.24,19.85,2.57,17.63-7.46,7.35-21.19-2.69-28.57,11.08-.18,22.41-.4,32.75-3.36,10.34-2.96,19.68-9.25,21.58-17.4,.73-3.12,.29-6.22-.99-9.18,3.74,.34,7.5,.53,11.26,.55,9.49,.04,19.6-1.15,26.7-5.84,17.61-11.64,5.63-29.46-5.72-40.65Z"/>
                <path class="cls-33" d="M312.05,12.07c5.05,3.95,12.55,5.92,19.86,5.7,7.66-.23,15.55-3.12,18.86-8.29,4.9-7.66-1.8-21.52-12.67-24.8-11.76-3.55-27.92,3.62-31.32,12.26-2.06,5.23,.24,11.17,5.28,15.12Z"/>
                <path class="cls-33" d="M340.28,203.31c4.88,3.15,12,4.82,18.87,4.79,7.2-.04,14.52-2.13,17.46-6.08,4.36-5.85-2.41-16.71-12.74-19.46-11.18-2.97-26.14,2.29-29.05,8.93-1.76,4.02,.59,8.67,5.47,11.82Z"/>
              </g>
              <g>
                <path class="cls-33" d="M1327.86,214.05c-4.98,2.71-9.02,6.5-10.8,10.91-2.12,5.26-.91,10.93,.81,16.27-9.09-4.14-19.91-6.64-30.43-5.44-10.53,1.21-20.49,6.64-23.4,14.28-3.38,8.88,3.04,18.22,10.99,25.29-7.91-1.35-15.49,4.28-16.84,10.25-1.35,5.97,1.68,11.96,4.65,17.59-.84-1.6-8.89,1.01-10.07,1.89-2.64,1.97-4.68,5.04-5.44,7.73-.82,2.89-.64,5.88-.46,8.83-3.4-2.07-8.84-1.47-11.98,.82-3.14,2.29-4.2,5.82-3.66,9.07-2-1.12-4.35-2.12-6.83-1.92-2.58,.21-4.69,1.7-5.92,3.41-1.72,2.39-1.97,5.46-.06,7.77,4.04,4.89,13.8,2.09,18.3-.94,2.44,3.51,7.18,6.38,12.48,6.37,5.3-.02,10.47-3.74,9.49-7.63,8.17,3.76,18.63,5.45,27.49,2.69,8.85-2.77,14.83-10.85,11.16-17.47,10.92,4.07,24.42,4.66,35.29,.53,10.88-4.14,18.37-13.31,16.87-22.35,7.24,1.83,14.79,3.69,22.38,2.99,8.83-.81,16.94-5.38,20.08-11.59,3.14-6.21,.99-13.78-5.47-18.33,6.48,1.33,13.84-1.32,17-5.75,3.16-4.43,2.21-10.17-1.82-14.18-4.03-4.01-10.79-6.27-17.51-6.34,1.36-9,1.42-17.65-4.31-25.88-9.49-13.65-35.56-17.8-52-8.86Z"/>
                <path class="cls-33" d="M1420.19,237.35c2.81,2.19,6.98,3.29,11.04,3.17,4.26-.13,8.65-1.74,10.49-4.61,2.73-4.26-1-11.96-7.05-13.79-6.54-1.97-15.52,2.01-17.42,6.82-1.15,2.91,.13,6.21,2.94,8.41Z"/>
              </g>
              <path class="cls-36" d="M608.78,146.82c-17.36-6.57-34.61-13.76-48.61-23.86-9.44-6.81-20.59-15.34-24.19-25.07-8.52-23.01,28.53-12.43,40.14-4.37,11.09,7.7,17.98,18.11,24.36,28.36,11.41-8.3,29.8-10.71,44.32-5.82,14.52,4.89,24.25,16.78,23.45,28.66,6.89-5.48,15.17-11.39,25.22-10.94,9.76,.44,17.13,6.89,21.23,13.51,7.08,11.44,13.41,19.18,23.1,28.83-9.52,8.14-51.2-5.06-63.24-8.14-22.61-5.79-44.48-13.11-65.78-21.17Z"/>
              <path class="cls-36" d="M1160.15,257.71c6.35-.8,12.82-1.7,18.45-4.02,5.64-2.32,10.41-6.34,11.11-11.12,1.2-8.16-9.5-14.7-20.09-16.92-7.94-1.67-16.87-1.79-24.05,1.25-9.2,3.89-13.51,11.88-17.17,19.29-5.5-6.25-13.82-11.79-23.81-12.41s-20.83,5.59-19.66,13.02c-1.24-5.55-11.61-8.53-17.52-5.04-3.82,2.25-5.21,6.12-8.52,8.78-3.01,2.43-7.33,3.65-11.49,4.8-8.21,2.27-24.23,4.96-10.44,10.18,8.83,3.35,32.52-.52,42.49-.96,27.02-1.19,54.02-3.4,80.69-6.84Z"/>
            </g>
            <g class="cls-24">
              <g>
                <path class="cls-20" d="M556.48,851.49c-9.84-38.5-35.12-76.39-78.61-98.47-43.48-22.08-106.87-24.41-146.89,1.05,4.9-11.4-.39-24.83-12.78-32.46-12.39-7.62-31.11-8.96-45.22-3.23-8.35-20.29-16.92-40.83-32.03-58.82-15.11-18-37.75-33.46-65.45-38.45-21.66-3.9-43.16-4.58-64.88-.88-18.67,3.18-35.75,12.11-50.93,26.91-18.41-16.65-46.24-37.94-73.85-44.49-55.8-13.25-124.86,5.37-148.38,45.31-7.49,12.73-10.32,26.75-10.79,40.65-1.63,48.04,23.68,94.04,48.54,138.39,1.78,3.17,3.67,6.46,7.14,8.73,4.08,2.66,9.69,3.5,15.01,4.26,223.9,31.65,442.76,80.22,661.16,128.71,3.94-39.08,7.78-78.69-2.06-117.19Z"/>
                <path class="cls-4" d="M271.95,716.28c2.79,9.82,4.21,19.85,4.22,29.88"/>
                <path class="cls-4" d="M330.88,753.63c-6.11,4.82-11.7,10-16.7,15.48"/>
              </g>
              <g>
                <path class="cls-20" d="M1531.22,639.11c-46.05,1.72-89.18,23.9-109.57,54.7-11.93-8.24-29.25-11.93-45.23-9.64-15.98,2.29-24.64,8.44-37.65,19.63-3.96,3.41-8.39,10.23-8.39,10.23,0,0-2.6-6.54-10.35-8.48-37.51-9.39-78.77,2.74-112.57,18.07-54.25,24.6-96.45,61.21-137.4,97.36,77.38,6.48,153.89,17.91,231.23,24.66,160.66,14.03,324.02,7.84,483.67,27.25,6.75-34.3-8.77-70.64-40.89-95.74-32.12-25.09-80.14-38.38-126.47-35.01,5.92-.43,8-26.98,8.01-30.51,.03-11.13-2.69-22.76-8.59-33.04-15.34-26.74-47.43-40.93-85.79-39.49Z"/>
                <path class="cls-4" d="M1420.69,692.97c17.52,6.83,26.87,19.68,32.61,34.09"/>
                <path class="cls-4" d="M1330.38,714.03c-6.43,8.75-9.87,17.17-12.87,25.82"/>
              </g>
            </g>
            <rect class="cls-16" x=".02" y=".4" width="1537.97" height="763.39"/>
            <rect class="cls-16" x=".02" y=".8" width="1537.97" height="762.99"/>
            <rect class="cls-16" x=".02" y=".8" width="1537.97" height="762.99"/>
            <rect class="cls-16" x=".02" y=".4" width="1537.96" height="763.39"/>
            <rect class="cls-16" y="1.64" width="1537.97" height="767"/>
          </g>
          <g class="cls-37">
            <g>
              <g>
                <g>
                  <path class="cls-38" d="M1412.69,606.81c-1.27,.21-23.66,.99-34.27,6.23-24.64,12.18-50.22,62.27-50.22,62.27l-46.38-26.8-28.44,30.39s29.23,55.48,60.94,68.6c14.16,5.86,31.69,5.42,56.62-20.6,24.93-26.02,50.76-66.7,50.76-66.7"/>
                  <path class="cls-38" d="M1466.78,597.79c9.75,.42,42.13,2.51,57.93,18.68,15.8,16.17,18.83,52.22,7.91,83.8-10.91,31.58-33.9,128.58-33.9,128.58l-173.1,6.19s22.13-117.92,23.67-129.58-.62-24.22,3.87-40.43c4.49-16.21,25.77-48.39,25.77-48.39,0,0,24.34-8.72,33.74-10.08,9.4-1.36,44.35-9.18,54.1-8.77Z"/>
                  <path class="cls-1" d="M1470.93,603.75c-8.7,9.06-20.35,15.51-32.94,18.23-11.89,2.56-29.83,1.43-33.92-10.95"/>
                  <path class="cls-1" d="M1341.12,747.9c3.68-17.48,12.29-34.09,14.92-51.71,.88-5.88,.76-11.79,1.55-17.67,1.94-14.61,10.04-28.83,7.93-43.72"/>
                  <path class="cls-1" d="M1327.85,675.09c4.64,3.3,9.98,5.75,14.87,8.76,4.89,3.01,9.47,6.79,11.59,11.72"/>
                </g>
                <g>
                  <path class="cls-22" d="M1453.07,577.37l14.09,20.84s-15.4,17.12-34.52,18.97c-19.13,1.85-22.81-3.29-22.81-3.29l-10.76-27.43,18.17-37.76,25.77,.81,10.05,27.86Z"/>
                  <path class="cls-22" d="M1388.89,539.5c-1.52,2.13-2.76,4.41-3.77,6.68-3.31,7.46-2.17,13.8-1.26,21.56,.68,5.83,1.29,11.67,1.99,17.5,.52,4.3,1.17,8.83,4.15,12.26,2.45,2.81,6.21,4.52,10.07,5.48,14.23,3.53,30.26-2.89,38.45-13.78,8.18-10.89,9.06-25.29,4.33-37.68-3.21-8.4-9.33-16.44-18.53-19.95-5.35-2.05-11.35-2.42-17.17-2.1-2.54,.14-5.11,.41-7.44,1.3-4.31,1.64-8.24,5.14-10.8,8.72Z"/>
                  <path class="cls-27" d="M1372.23,550.1c-1.46-4.77-1.81-10.84,2.91-13.88,2.7-1.74,6.2-2.4,8.47-4.67,3.48-3.48,.54-4.86,2.26-9.25,1.66-4.25,6.71-8.16,11.73-8.85,7.37-1.01,13.63,3.66,20.97,4.78,3.35,.51,6.77,.38,10.17,.5,9.81,.37,17.86,3.74,25.62,9.06,8.2,5.62,9.53,10.99,10.13,20.21,.68,10.48-1.94,17.06-7.19,26.14-.36,.62-.78,8.29-.46,8.62-5.45-5.87-10.71-11.45-15.05-18.02-.69-1.05-1.41-2.12-2.44-2.93-.94-.74-2.09-1.22-3.21-1.72-7.81-3.45-14.94-6.72-16.6-15.18-3.9,1.77-8.67,1.6-12.8,.28-4.13-1.32-7.73-3.67-11.08-6.18-.33-.25-.7-.51-1.14-.49-.34,.02-.64,.22-.9,.41-7.89,5.8-10.46,13.99-10.31,22.75-4.38-1.8-8.54-5.05-10.23-9.14-.31-.75-.61-1.57-.87-2.44Z"/>
                  <path class="cls-1" d="M1395.14,566.21c.52,4.91-.3,9.91-.71,14.82-.1,1.16-.14,2.78,1.51,2.96,2.46,.27,6.29-.81,8.97-1.4"/>
                  <path class="cls-1" d="M1389.73,559.06c-.46,3.44-3.44,6.13-6.59,7.92"/>
                  <path class="cls-1" d="M1401.61,557.28c5.35,2.33,13.19,4.63,19.2,3.28"/>
                  <path class="cls-1" d="M1434.85,592.48c-2.71,3.74-7.05,6.77-11.51,8.6-5.2,2.14-11.21,2.73-17.93,3.05"/>
                  <g>
                    <path class="cls-22" d="M1433.38,563.38c1.03-2.5,3.4-4.79,5.52-5.36,6.71-1.78,11.85,5.09,12.08,10.89,.15,3.93-1.68,8.16-5.14,10.44-4.9,3.24-11.35,3.26-13.41-2.36"/>
                    <path class="cls-1" d="M1445.91,565.07c-4.32,2.53-8.6,5.13-12.83,7.81"/>
                    <path class="cls-1" d="M1436.68,559.18c-2.05,1.49-3.61,3.61-4.38,5.96"/>
                    <path class="cls-1" d="M1450.71,572.34c-.94,3.59-3.48,6.92-7,8.39-3.52,1.47-7.98,.78-10.36-2.02-.48-.56-.87-1.19-1.28-1.8"/>
                  </g>
                  <path d="M1408.5,569c.37,1.34,1.49,2.25,2.5,2.04s1.53-1.48,1.16-2.83c-.37-1.34-1.49-2.25-2.5-2.04-1.01,.22-1.53,1.48-1.16,2.83Z"/>
                  <path d="M1386.32,572.63c.37,1.34,1.49,2.25,2.5,2.04,1.01-.22,1.53-1.48,1.16-2.83-.37-1.34-1.49-2.25-2.5-2.04-1.01,.22-1.53,1.48-1.16,2.83Z"/>
                  <path class="cls-1" d="M1413.24,587.73c-1.97-.74-4.23-.59-6.3-.12-2.64,.6-5.8,1.25-7.6,3.2"/>
                </g>
              </g>
              <g>
                <path class="cls-32" d="M1260.71,766.18c.23-15.08-3.08-29.97-6.56-44.66-3.36-14.18-8.41-28.95-8.66-43.5-.03-1.59,.02-3.19,.49-4.72,.49-1.58,1.4-3.04,2.37-4.44,5.51-8.04,12.87-15.18,21.88-20.15,11.13-6.14,25.08-8.14,38-7.89,10.2,.2,23.78,.89,30.46,8.84,2.1,2.5,3.18,5.54,4.72,8.34,6.1,11.06,16.93,20.12,22.27,31.51,2.24,4.77,3.05,9.97,3.53,15.12,.52,5.59,.67,11.2,.42,16.8-.28,6.46-1.09,12.9-1.16,19.36-.23,20.96,7.25,41.38,16.22,60.78l-7.61,8.24c-18.83,8.26-38.38,16.7-59.39,17.46-14.86,.54-29.51-2.82-43.9-6.15-5.8-1.34-11.66-2.71-16.96-5.2-1.39-.66-2.82-1.46-3.46-2.74-.75-1.51-.19-3.24,.37-4.81,2.3-6.44,2.31-12.17,3.73-18.65,1.71-7.77,3.11-15.6,3.22-23.54Z"/>
                <g>
                  <g>
                    <path class="cls-40" d="M1298.01,610l-16.07,31.11s12.9,16.02,31.95,17.19c12.29,.75,16.47-10.12,16.47-10.12l.31-22.12"/>
                    <path class="cls-40" d="M1343.71,607.04c-2.54-10.31-5.85-23.87-11.09-32.08-7.06-11.08-24.29-15.06-36.64-8.58-15.33,8.04-17.97,27.38-13.01,41.11,1.57,4.35,3.84,8.5,6.72,12.28,5.36,7.06,13.41,11.32,22.43,14.01,9.92,2.96,23.25,3.77,29.66-5.2,5.01-7.01,3.93-13.43,1.93-21.54Z"/>
                    <path class="cls-27" d="M1313.94,590.19c2.67-3.49,4.37-5.84,5.76-9.84-.18,.51,15.22,5.64,16.95,6.61,2.35,1.32,2.34,2.37,3.09-.74,.74-3.08-2.77-8.83-4.63-11.34-2.04-2.75-3.76-4.2-6.6-6.32-8.24-6.15-18.33-9.23-29-6.89-7.79,1.7-15.36,5.09-21.12,10.07-6.86,5.93-10.02,14.8-13.21,22.6-4.41,10.81-6.26,22.25-5.88,33.72,.4,12.35,.86,24.65,.68,37.03,0,.29,0,.6,.2,.84,.29,.34,.85,.36,1.34,.34,3.99-.13,8.01-.26,11.9-1.05,3.89-.8,7.69-2.31,10.47-4.85,1.96-1.79,3.33-4.01,4.94-6.05,1.98-2.51,4.36-4.82,5.81-7.59,1.2-2.29,1.72-4.82,2.01-7.33,.68-5.86,.16-11.78,.26-17.67,.08-4.63,.51-9.32,2.12-13.75,1.69-4.65,4.92-6.95,8.45-10.49,2.31-2.32,4.51-4.73,6.47-7.29Z"/>
                    <g>
                      <path class="cls-40" d="M1300.9,611.23c-1.8-1.16-4.31-1.71-5.87-1.28-4.94,1.35-4.9,7.42-2.35,11.06,1.73,2.47,4.82,4.39,8,4.54,4.51,.21,8.47-2.13,7.13-6.32"/>
                      <path class="cls-1" d="M1294,616.82c3.83-.02,7.66,.02,11.5,.13"/>
                      <path class="cls-1" d="M1296.92,609.85c1.95,.17,3.89,.9,5.46,2.06"/>
                      <path class="cls-1" d="M1294.43,623.02c2.25,1.86,5.35,2.98,8.19,2.6,2.84-.38,5.25-2.42,5.41-5,.03-.52-.02-1.04-.05-1.56"/>
                    </g>
                    <path class="cls-1" d="M1307.72,629.92c5.51,3.19,14.01,6,22.82,5.55"/>
                    <path class="cls-1" d="M1329.74,600.63c.68,1.8,1.36,3.61,2.65,5.25,.67,.85,1.5,1.65,2.01,2.54,1.21,2.1-.09,2.88-3.1,3.94"/>
                    <path class="cls-1" d="M1329.24,586.51c.97,2.64,6.99,4.25,10.93,4.45"/>
                    <path class="cls-1" d="M1326.84,620.2c2.44-1.95,5.8-2.95,9.08-2.72"/>
                    <path class="cls-1" d="M1316.4,591.28c-.67,1.03-1.34,2.06-2.02,3.09-.9,1.37-1.8,2.76-2.99,3.94-1.71,1.71-3.94,2.93-6.15,4.12"/>
                    <path d="M1314.82,604.91c.45,1.4,1.64,2.32,2.65,2.07,1.01-.26,1.46-1.59,1.01-2.99-.45-1.4-1.64-2.32-2.65-2.07-1.01,.26-1.46,1.59-1.01,2.99Z"/>
                    <path d="M1335.72,598.95c.45,1.4,1.64,2.32,2.65,2.07,1.01-.26,1.46-1.59,1.01-2.99-.45-1.4-1.64-2.32-2.65-2.07-1.01,.26-1.46,1.59-1.01,2.99Z"/>
                  </g>
                  <path class="cls-21" d="M1253.09,634.39c4.68-17.85,5.03-36.91,14.29-53.29,2.33-4.13,5.24-8.05,9.07-11.19,4.26-3.5,9.5-5.9,14.68-8.25,5.99-2.71,14.7-2.87,21.22-1.88,12.71,1.93,23.77,10.67,27.36,21.62,1.83,5.58,1.83,11.49,1.81,17.3-.75-4.25-2.52-8.35-5.13-11.98-2.57-3.58-5.94-5.81-9.97-8.06-2.81-1.57-6.05-2.93-9.33-2.45-10.43,1.52-16.07,11.3-17.83,19.64-1.2,5.72-2.03,11.21-2.66,17-.52,4.78-1.03,9.58-2.3,14.24-1.6,5.88-4.54,11.41-8.47,16.36-2,2.52-4.79,4.64-6.68,7.18-.73,.98-.77,2.15-1.45,3.13-.85,1.23-2.48,1.95-3.91,2.54-8.63,3.59-18.63,6.51-27.53,3.48-.88-.3-1.82-.74-2.09-1.53-.19-.57,0-1.17,.22-1.73,1.14-2.97,2.69-5.8,4.02-8.71,1.99-4.36,3.48-8.86,4.68-13.44Z"/>
                  <g class="cls-30">
                    <g>
                      <path class="cls-7" d="M1338.3,590.1c-.67-5.29-4.53-9.85-8.87-13.54-8.35-7.09-22.6-5.46-29.4,2.53-4.97,5.84-5.94,13.6-6.64,20.66-.48,4.92-1.39,9.6-2.24,14.45-1.81,10.3-5.55,20.34-11.02,29.58-.55,.92-1.11,1.84-1.69,2.75-2.96,4.62-6.43,9.17-7.46,14.41"/>
                      <path class="cls-7" d="M1340.66,578.41c-4.9-7.99-15.31-12.54-25.58-13.03-6.99-.33-14.02,2.45-18.8,7.03-5.88,5.62-6.49,12.92-8.29,20.07-2.59,10.27-5.11,24.99-10.21,34.49-3.77,7.03-9.03,13.34-13.64,19.97-4.61,6.63-8.67,13.8-9.62,21.53"/>
                      <path class="cls-7" d="M1324.15,561.59c-6.1-2.18-13.03-2.72-19.32-1.01-10.51,2.86-17.81,11.49-21.91,20.51-4.1,9.03-5.72,18.78-9.21,28.01-8.08,21.35-25.73,38.92-35.08,59.87"/>
                      <path class="cls-7" d="M1290.87,560.61c-8.22,5.47-13.84,13.49-17.88,21.85-4.04,8.36-6.68,17.2-10.15,25.76-6.78,16.72-16.74,32.42-29.36,46.25"/>
                    </g>
                  </g>
                  <path class="cls-21" d="M1338.82,579.12c4.52,11.62,15.64,27.5,19.02,41.02,1.79,7.13,1.74,14.62-.13,21.73-.85,3.24-2.1,6.43-4.05,9.28-12,17.5-43.91,17.48-64.08,17.27-19.57-.2-39.83-1.13-57.97,5.36-7.61,2.73-14.83,6.26-20.97,11.11-4.97,3.93-9.41,8.44-14.93,11.8-5.88,3.57-12.09,6.67-18.49,9.48-9.41,4.13-19.53,6.8-29.59,9.45-3.3-7.93-33.61-47.62-33.61-47.62,0,0,14.1-2.53,25.08-5.44,16.63-4.41,31.18-13.27,46.19-20.98,11.46-5.89,23.91-11.37,37.14-13.22,13.77-1.93,28.21-.66,41.82,1.63,13.83,2.33,28.01,2.1,41.96,3.59,8.36,.89,16.96,2.25,25.1,.34,3.8-.89,7.49-2.57,9.92-5.3,2.99-3.37,3.71-7.91,3.5-12.19-.24-4.86-1.53-9.62-2.82-14.35-2.07-7.61-4.14-15.23-6.21-22.84"/>
                  <path class="cls-1" d="M1292.42,632.15c-12.98-.14-37.18-3.5-37.18-3.5"/>
                  <g class="cls-39">
                    <g>
                      <path class="cls-7" d="M1342.56,585.02c1.39,6.25,3.43,19.27,4.29,26.2,.86,6.92,2.07,14.31-2.88,19.73-7.66,8.38-24.44,7.93-36.59,7.07-22.99-1.64-55.02-7.67-77.97-5.57-21.17,1.93-38.64,13.74-56.28,23.2-20.68,11.08-45.34,16.58-69.36,17.64"/>
                      <path class="cls-7" d="M1358.16,624.75c.7,14.71-9.56,29.36-24.76,35.36-15.92,6.29-32.47,4.72-49.34,5.01-16.71,.29-33.28-2.17-49.33,2.19-18.75,5.09-34.58,20.09-51.53,28.2-17.47,8.36-36.5,14.18-56.1,17.11"/>
                      <path class="cls-7" d="M1349.06,593.27c2.11,7.18,3.54,17.03,3.56,25.19,.01,4.23-.48,8.55-2.45,12.4-3.16,6.18-10.01,10.43-17.34,12.43-7.33,2-15.15,2.01-22.81,1.63-28.49-1.41-57.72-7.88-85.03-.56-19.72,5.28-36.11,17.21-53.81,26.54-21,11.06-44.36,18.62-68.47,22.16"/>
                      <path class="cls-7" d="M1357.65,612.04c3.68,12.04-5.77,29.6-17.97,35.85-12.2,6.25-26.99,7.05-41.07,6.32-14.08-.73-28.15-2.82-42.2-1.75-19.07,1.45-37.01,8.65-53.47,17.29-13.63,7.15-26.55,15.36-40.63,21.79-22.17,10.13-47,15.68-71.95,16.08"/>
                    </g>
                  </g>
                  <path class="cls-1" d="M1310.92,642.14c7.83-.06,15.87-1.88,22.35-5.86,3.74-2.29,7.05-5.28,8.9-8.95,3.07-6.08,1.82-13.09,.52-19.65-1.38-6.93-2.52-14.49-6.06-20.87-3.23-5.83-7.92-11.29-12.92-16.03"/>
                  <path class="cls-1" d="M1228.36,675.27c-16.5,4.98-32.06,12.41-45.82,21.89"/>
                </g>
                <g>
                  <path class="cls-19" d="M1415.23,684.23c-4.39,13.44-12.94,25.69-23.99,35.65-11.42,10.29-25,19.44-40.32,24.64-9.99,3.39-21.43,5.04-32,2.98-12.66-2.48-23.01-12.43-27.16-23-5.05-12.86-1.32-25.74,7.75-36.31,11.97-13.96,29.47-23,42.9-35.7,6.78-6.41,12.95-13.49,20.99-18.75,15.7-10.28,36.07-6.91,46.02,8.16,8.2,12.43,10.34,28.52,5.82,42.34Z"/>
                  <g class="cls-26">
                    <path class="cls-23" d="M1344.83,737.18c1.32-.88,2.77-1.61,4.2-2.34,2.39-1.2,4.78-2.41,7.17-3.61,1.15-.58,2.32-1.18,3.18-2.07,1.66-1.73,1.75-4.49,.19-6.3-1.29-1.51-3.4-2.23-5.27-3.15-1.87-.91-3.75-2.31-3.9-4.19-.12-1.52,.95-2.92,2.21-3.96,4.08-3.35,10.13-4.04,14.74-6.8,1.39-.83,2.67-1.9,3.27-3.28,.42-.96,.48-2.01,.52-3.04,.06-1.55,.08-3.1,.07-4.65-.02-2.51-.09-5.18,1.38-7.32,2.09-3.05,7.17-3.86,10.45-1.89,3.31,1.99,4.88,5.58,5.69,8.92,.71,2.92,.91,5.92,1.35,8.88,.45,2.98,2.77,4.62,5.95,2.84,4.22-2.35,7.07-6.32,11.38-8.53,1.46-.74,3.25-1.27,4.8-.69,1.55,.57,2.3,2.68,.97,3.59l-2.9,9.87c-.18,5.88-3.52,11.4-7.94,15.79-4.42,4.39-9.91,7.83-15.27,11.31-5.95,3.86-11.85,7.83-18.4,10.82-6.94,3.16-15.82,5.61-23.67,5.24-1.22-.06-2.53-.18-3.48-.86-.81-.57-1.25-1.45-1.54-2.32-1.21-3.65-.11-7.82,2.8-10.62,.62-.6,1.32-1.13,2.05-1.62Z"/>
                    <path class="cls-23" d="M1278.67,693.31c1.5-6.44,6.09-11.95,10.77-17.06,5.45-5.96,11.18-11.71,17.19-17.23l17.51-9.83c1.48-1.28,4.23-.28,5,1.42,.77,1.7,.14,3.63-.69,5.31-2.74,5.56-7.73,10.77-7.07,16.81,.08,.71,.25,1.44,.74,2,.5,.58,1.29,.92,2.08,1.14,2.08,.59,4.3,.52,6.48,.69,2.17,.16,4.46,.63,5.98,2.01,1.52,1.38,1.82,3.93,.12,5.14-.77,.55-1.79,.74-2.77,.89-4.89,.78-9.83,1.27-14.79,1.46-2.19,.08-4.89,.42-5.62,2.25-.55,1.38,.41,2.85,1.31,4.08,1.44,1.97,2.86,4,3.51,6.28,.65,2.27,.43,4.86-1.18,6.72-1.61,1.86-4.82,2.69-7.06,1.44-.89-.5-1.57-1.26-2.43-1.8-.86-.54-2.1-.81-2.95-.25-.84,.56-.89,1.63-1.18,2.53-.9,2.81-4.48,4.23-7.75,4.58-3.31,.36-6.77-.01-9.71-1.41-6.55-3.11-8.99-10.73-7.49-17.17Z"/>
                    <path class="cls-23" d="M1404.15,664.14c-1.54-.47-2.25-2.12-2.02-3.55s1.16-2.67,2.03-3.88c2.23-3.1,4.17-7.3,1.64-10.21-1.3-1.49-3.46-2.17-4.99-3.49-2.99-2.57-2.82-7.02-.9-10.3,2.79-4.77,9.55-7.89,15.21-5.95,3.67,1.26,6.26,4.34,7.4,7.67,1.15,3.33,1.02,6.9,.57,10.35-.29,2.23-.6,4.79,1.16,6.41,.72,.67,1.71,1.07,2.72,1.32,4.88,1.23,11.03-.4,14.54,2.84,2.78,2.56,2.12,6.77,.44,9.99-2.76,5.28-11.01,11.88-17.92,7.58-4.4-2.74-4.24-13.34-11.72-12.14-3.06,.49-5.21,4.24-8.15,3.34Z"/>
                    <path class="cls-23" d="M1329.92,649.42c2.46-1.07,5.46-1.34,7.96-.34,.89,.36,1.71,.88,2.24,1.6,1.06,1.44,.73,3.34,.24,5-1.08,3.64-2.79,7.14-5.06,10.33-.98,1.37-2.18,2.76-3.93,3.23-1.54,.41-3.25-.01-4.52-.87-1.27-.86-2.15-2.11-2.75-3.42-2.61-5.71-.59-12.72,5.83-15.52Z"/>
                    <path class="cls-23" d="M1404.48,683.69c.19,.13,.38,.27,.56,.43,2.71,2.29,3.14,6.22-.22,8.32-3.1,1.93-9.31,1.42-9.22-2.78,.08-3.88,4.52-8.9,8.87-5.96Z"/>
                  </g>
                  <path class="cls-10" d="M1354.09,644.09c-2.9,5.69-4.08,12.27-3.34,18.73,.73,6.45,3.38,12.76,7.52,17.94"/>
                  <path class="cls-34" d="M1388.55,638.95c1.89,1.12,3.69,2.42,5.02,4.09,2.92,3.66,3.83,8.39,3.36,12.79-.55,5.11-3.7,9.87-8.1,13.01-5.09,3.63-11.79,4.65-18.13,4.16-5.38-.42-10.99-1.66-15.28-4.78-4.76-3.45-6.23-9.23-4.48-14.37,1.49-4.37,4.59-8.08,7.7-11.65,7.45-8.54,20.01-9.17,29.93-3.27Z"/>
                  <path class="cls-1" d="M1382.6,636.13c-1.31,.32-2.7-.17-3.85-.81-1.94-1.07-3.57-2.57-4.71-4.33"/>
                  <path class="cls-1" d="M1385.03,636.83c-3.75,2.51-9.28,2.71-13.25,.48"/>
                  <path class="cls-1" d="M1387.26,638.21c-2.15,2.12-4.51,4.34-7.65,4.95-.63,.12-1.28,.17-1.93,.18-1.37,.02-2.74-.13-4.06-.45"/>
                  <path class="cls-1" d="M1383.17,656.21c-1.13,.39-2.29,.71-3.47,.93-.48,.09-.97,.17-1.45,.11-.86-.11-1.58-.64-2.13-1.23-.83-.89-1.38-1.98-1.59-3.12"/>
                  <path class="cls-1" d="M1365.72,649.36c-1.25,.6-2.75,.93-4.11,.58-1.37-.35-2.51-1.53-2.37-2.78"/>
                  <path class="cls-1" d="M1386.74,651.11c-.53-1.71-2.11-3.14-4.04-3.64"/>
                  <path class="cls-1" d="M1368.71,642.1c-1.91-.53-4.02-.44-5.86,.25"/>
                  <path class="cls-1" d="M1365.69,654.45c-.6,.12-1.11,.54-1.28,1.06-.17,.52,0,1.12,.43,1.5"/>
                  <path class="cls-31" d="M1371.81,658.87s.06-.02,.08-.03c2.08-.66,4.87,.07,6.51,1.3,1.61,1.2,.6,3.32-.84,4.23-1.77,1.12-4.36,1.03-6.27,.27-.62-.25-1.21-.59-1.6-1.09-1.3-1.66,.2-4.02,2.12-4.68Z"/>
                  <path class="cls-31" d="M1355.52,651.58s.05,0,.07,0c1.86-.07,3.87,1.2,4.81,2.62,.93,1.39-.51,2.95-1.93,3.38-1.74,.53-3.79-.15-5.09-1.24-.42-.35-.79-.78-.95-1.29-.54-1.71,1.35-3.36,3.09-3.46Z"/>
                  <path class="cls-18" d="M1363.62,659.31c1.14-.04,2.21,.86,2.23,1.87,0,.11,0,.23-.07,.33-.16,.26-.56,.28-.89,.26-.57-.03-1.15-.09-1.65-.33-.5-.24-.9-.7-.87-1.2,.03-.59,.74-1.08,1.39-.96"/>
                  <path class="cls-2" d="M1389.76,632.65c5.35,7.66,9.6,16.13,6.91,25.27-3.35,11.38-15.37,17.61-27.36,20.68-18.11,4.65-38.44,3.42-55.93-3"/>
                  <g>
                    <path class="cls-34" d="M1362.62,678.25c-.2-2.64-2.15-5.15-4.82-6.19-.87-.34-2.12-.4-2.47,.4-.06,.15-.1,.32-.23,.42-.17,.13-.43,.06-.65,.02-.91-.18-1.89,.09-2.52,.7-.63,.6-.9,1.52-.68,2.36-.78-.23-1.69,0-2.21,.57s-.63,1.43-.28,2.11c-.78-.22-1.57,.43-1.73,1.16-.16,.73,.12,1.49,.41,2.2,.71,1.75,1.67,3.68,3.56,4.35,1.08,.38,2.28,.27,3.39,.06,4.27-.83,8.55-3.62,8.22-8.15Z"/>
                    <path class="cls-5" d="M1354.92,672.73c1.43,.49,2.61,1.62,3.09,2.97"/>
                    <path class="cls-5" d="M1351.01,675.81c1.41,.53,2.58,1.6,3.17,2.89"/>
                    <path class="cls-5" d="M1348.3,678.71c.26,.01,.48,.15,.69,.3,1.03,.73,2.02,1.66,2.49,2.8"/>
                  </g>
                  <g>
                    <path class="cls-34" d="M1342.69,667.55c2.88-.71,5.66-1.12,7.64,.77,.65,.62,1.12,1.64,.39,2.19-.14,.1-.31,.19-.37,.33-.08,.19,.07,.38,.19,.55,.49,.7,.52,1.61,.09,2.34-.44,.73-1.33,1.25-2.29,1.34,.5,.58,.55,1.41,.12,2.03-.43,.62-1.31,1-2.17,.93,.49,.58,.06,1.46-.67,1.83-.73,.37-1.63,.39-2.49,.38-1.64-.01-3.4-.47-4.59-1.5-1.87-1.63-1.46-4.26-.67-6.25,.83-2.09,2.24-4.3,4.82-4.93Z"/>
                    <path class="cls-5" d="M1350.57,670.94c-1-1.03-2.59-1.64-4.18-1.6"/>
                    <path class="cls-5" d="M1348.57,675.23c-1.03-1-2.55-1.63-4.13-1.7"/>
                    <path class="cls-5" d="M1346.36,678.44c-.1-.21-.32-.35-.54-.48-1.12-.62-2.44-1.14-3.8-1.16"/>
                  </g>
                  <path class="cls-2" d="M1332.38,680.38s-1.87-13.8,1.17-20.36"/>
                  <path class="cls-2" d="M1412.32,649.72c1.54,8.73,.77,17.85-2.86,26.16-7.94,18.16-30.19,26.71-51.01,29.94-22.26,3.45-45.56,2.51-67.32-2.34"/>
                  <path class="cls-2" d="M1400.33,710.38c-19.63,14.86-45.04,21.42-70.54,22.27-11.93,.4-22.3,.66-34.09-.84"/>
                </g>
                <g>
                  <g>
                    <path class="cls-40" d="M1359.89,708.53c4.22-2.73,9.44-6.16,12.56-9.91,3.06-3.68,6.51-7.2,10.07-10.52,3.92-3.65,9.82-5.69,14.83-7.99,.86-.39,2.51-1.07,3.11-.8,1.11,.49,.53,2.61-.12,3.44-.65,.83-1.08,1.58-2.03,2.44,5.91-2.55,8.26-9.03,13.42-12.62,.62-.43,1.95-1.16,3.45-.96,.82,.11,.82,1.64,.69,2.36,1.08-.36,1.99-1.07,3.16-.96,1.47,.14,2.55,.74,2.25,2.02-.16,.69-.7,2.51-.7,2.51,0,0,1.72,1.33,1.86,1.79,.71,2.31,.36,4.62,0,6.86-.38,2.37-.37,4.78-.73,7.15-1.07,7.03-4.22,11.73-9.54,16.55-5.66,5.14-15.29,12.66-22.25,16.31-2.8,1.47-13.41,9.64-16.29,10.99"/>
                    <path class="cls-1" d="M1398.59,685.1c-4.01,1.69-8.43,2.69-12.97,2.94"/>
                    <path class="cls-1" d="M1415.64,673.71c-2.73,6.47-6.39,13.18-12.01,17.83"/>
                    <path class="cls-1" d="M1420.11,677.39s-.92,3.32-1.46,5.12c-1.69,5.69-5.37,9.82-10.08,14.28"/>
                    <path class="cls-1" d="M1413.14,702.72c1.93-2.31,3.88-4.64,5.21-7.31,1.83-3.67,4.49-13.06,4.49-13.06"/>
                  </g>
                  <path class="cls-32" d="M1246.93,671.51c-3.92,6.12-4.04,13.26-3.45,20.08,.89,10.31,3.78,20.64,8.84,29.98,5.69,10.49,27.85,45.41,53.84,49.76,35.01,5.86,80.8-37.27,80.8-37.27l-24.1-28.23-46.73,12.12-28.6-40.02"/>
                  <path class="cls-17" d="M1272.82,700.61c-2.57,3.88-4.92,7.87-7.03,11.95"/>
                  <path class="cls-17" d="M1266.75,697.93c-1.13,3.81-2.26,7.61-3.38,11.42"/>
                  <path class="cls-17" d="M1263.93,690.62c-1.94,4.26-3.09,8.8-3.37,13.38"/>
                  <path class="cls-17" d="M1266.42,682.29c-4.37,4.28-7.9,9.23-10.36,14.57"/>
                  <path class="cls-17" d="M1256.53,682.62c-1.73,3.42-3.04,7.01-3.89,10.68"/>
                  <polyline class="cls-1" points="1362.64 705.83 1315.92 717.95 1287.32 677.93"/>
                  <path class="cls-1" d="M1252.11,721.57c5.69,10.49,27.85,45.41,53.84,49.76,35.01,5.86,80.8-37.27,80.8-37.27"/>
                  <path class="cls-1" d="M1316.47,717.79c-5.07,2.26-11.11,2.96-15.41,6.24"/>
                </g>
              </g>
              <g>
                <g>
                  <path class="cls-22" d="M1365.55,717.4c-6.61-.51-14.84-1.21-21.01-3.48-6.06-2.22-12.42-4.05-18.75-5.58-6.97-1.69-14.9-.48-22.05-.06-1.23,.07-3.52,.29-3.98,.93-.84,1.18,1.36,3.15,2.69,3.67,1.33,.53,2.34,1.09,4.01,1.47-8.32,.66-15.69-5.02-23.96-5.93-1-.11-2.98-.13-4.46,.96-.81,.6,.33,2.26,1.01,2.97-1.44,.23-2.96,0-4.15,.79-1.5,1-2.22,2.28-.95,3.5,.69,.66,2.63,2.32,2.63,2.32,0,0-.88,2.44-.69,3.03,.95,2.92,3.04,5.23,5.1,7.46,2.18,2.36,3.95,4.98,6.1,7.35,6.38,7.02,13.3,10.29,22.66,12.45,9.97,2.3,26.02,4.88,36.29,4.8,4.13-.03,13.62,3.13,17.75,2.92"/>
                  <path class="cls-1" d="M1306.09,714.43c5.62-.5,11.16-1.97,16.28-4.33"/>
                  <path class="cls-1" d="M1279.1,711.94c7.77,5.45,16.73,10.62,26.29,12.4"/>
                  <path class="cls-1" d="M1276.98,718.53s3.47,3.07,5.39,4.72c6.06,5.2,13.13,7.55,21.56,9.66"/>
                  <path class="cls-1" d="M1303.36,742.02c-3.82-1.39-7.66-2.79-11.09-4.92-4.72-2.93-14.58-11.58-14.58-11.58"/>
                </g>
                <path class="cls-38" d="M1469.86,636.89l-37.33,86.12-74.26-7.69-16.25,44.22s47.08,17.4,75.98,21.97c31.08,4.91,52.24,10.9,71.37-18.23,18.54-28.22,43.75-85.37,43.75-85.37"/>
                <path class="cls-1" d="M1489.36,763.28c18.54-28.22,43.75-85.37,43.75-85.37"/>
                <path class="cls-1" d="M1342.01,759.54s47.08,17.4,75.98,21.97c31.08,4.91,52.24,10.9,71.37-18.23"/>
                <polyline class="cls-1" points="1469.86 636.89 1432.53 723.01 1358.27 715.32"/>
                <g>
                  <path class="cls-41" d="M1454.35,646.67c2.17-11.08,5.1-22.46,13.54-31.34,17.3-18.19,47.73-20.99,73.45-16.7,2.45,.41,4.88,.88,7.3,1.4,13.95,3.01,27.95,7.46,38.53,15.72,2.57,2.01,4.91,4.22,6.93,6.62,18.9,22.44,26.82,51.1,21.51,78.15-2.7,13.78-10.55,27.46-24.46,35.58s-34.46,9.24-47.5,.33c-10.82-7.39-14.03-19.14-17.98-29.65-4.52-12.05-9.54-24.01-16.12-35.41-4.98-8.62-12.28-17.78-23.79-19.39-7.29-1.02-14.89,1.39-20.52,5.36-4.48,3.16-11.02,14.23-11.02,14.23,0,0-3.19-7.99,.12-24.89Z"/>
                  <g class="cls-28">
                    <g>
                      <path class="cls-11" d="M1535.51,582.02c10.7,15.32,15.15,33.53,12.48,51.11-1.18,7.78-3.71,15.46-3.7,23.29,.01,8.69,3.15,17.45,.94,25.97-1.55,5.95-5.58,11.23-9.32,16.5-7.22,10.15-13.58,20.71-19.03,31.57"/>
                      <path class="cls-11" d="M1507.1,587.85c3.49,2.09,4.71,5.87,5.32,9.38,1.53,8.75,.83,17.66,1.33,26.49,.61,10.75,3.01,21.46,2.06,32.19s-5.91,21.97-16.77,28.1"/>
                      <path class="cls-11" d="M1460.54,601.51c5.7,3.26,9.88,8.24,11.57,13.76,1.66,5.45,1.01,11.46,4.26,16.4,1.48,2.25,3.67,4.12,5.42,6.22,7.42,8.91,6.2,20.78,3.68,31.41"/>
                      <path class="cls-11" d="M1572.38,592.2c1.85,8.39,2.63,16.95,2.32,25.49-.23,6.46-1.08,12.97,.19,19.34,1.04,5.23,3.49,10.19,5.38,15.26,8.31,22.26,5.16,48.08-12.23,66.64-9.18,9.79-21.73,17.13-34.93,23.07"/>
                      <path class="cls-11" d="M1510.4,688.44c7.2,7.54,14.55,15.2,24.17,20.65,8.78,4.97,19.23,7.96,27.12,13.84,4.33,3.23,7.73,7.21,10.71,11.34,7.07,9.78,12.09,20.86,11.95,32.25"/>
                      <path class="cls-11" d="M1499.89,664.19c12.12,7.78,24.47,15.38,37.8,21.69,18.02,8.53,38.07,14.86,52.97,26.75,8.62,6.88,15.2,15.46,19.02,24.81"/>
                      <path class="cls-11" d="M1624.64,684.51c-11.84-10.86-26.79-19.23-42.76-25.65-15.97-6.42-32.98-10.94-50.14-14.85-8.08-1.84-16.4-3.56-24.77-2.94-9.89,.73-19.15,4.76-26.47,10.28-7.32,5.52-12.83,12.47-17.34,19.72"/>
                      <path class="cls-11" d="M1615.68,643.12c-5.9-6.23-14.19-10.72-23.03-13.88-8.83-3.16-18.26-5.05-27.66-6.83-20.25-3.82-41.46-7.12-61.68-3.01-9.65,1.96-18.7,5.55-27.45,9.44-14.95,6.64-29.6,14.45-39.89,25.53"/>
                    </g>
                  </g>
                  <path class="cls-1" d="M1454.23,671.56c9.9-19.2,34.34-31.15,51.1-33.76,16.39-2.55,33.5-2.89,49.23,1.51"/>
                  <path class="cls-1" d="M1530.34,610.81c-17.66-1.69-32.68,.71-46.49,10.22-15.33,10.56-23.26,25.69-25.93,41.65"/>
                  <path class="cls-1" d="M1519.25,673.59c-7.15-8.3-16.55-15.3-27.34-20.34"/>
                  <path class="cls-14" d="M1554.85,693.27c-7.93,2.06-16.47,2.51-24.63,1.3"/>
                  <path class="cls-14" d="M1550.51,689.94c-8.69,1.03-17.58,.84-26.17-.54"/>
                  <path class="cls-14" d="M1539.87,684.74c-4.89,.33-9.85,.02-14.61-.91"/>
                  <path class="cls-14" d="M1534.87,679.33c-2.57,.17-5.14,.35-7.71,.52"/>
                  <path class="cls-14" d="M1577.94,610.17c-3.75,2.21-7.83,4.04-12.12,5.45-.92,.3-1.87,.59-2.86,.59-1.37,0-2.65-.54-3.85-1.08-4.71-2.15-9.23-4.56-13.75-6.97-2.1-1.12-4.25-2.28-5.77-3.91s-2.33-3.87-1.42-5.79"/>
                  <path class="cls-14" d="M1540.58,602.29c-1.81-.43-3.87-.08-5.33,.89"/>
                </g>
                <path class="cls-1" d="M1432.53,723.01c4.52,.97,9.53,1.05,14.05,2.02,5.76,1.24,11.29,3.5,15.65,6.9"/>
                <g>
                  <path class="cls-12" d="M1514.17,702.4c-4.05-7.41-9.59-14.18-16.27-19.91"/>
                  <path class="cls-12" d="M1509.22,705.09c-1.62-5.02-5.19-9.35-8.69-13.55"/>
                  <path class="cls-12" d="M1501.01,698.59c2.16,5,3.25,10.36,3.2,15.71"/>
                  <path class="cls-12" d="M1502.34,721.2c-3.09-7.02-7.75-13.49-13.63-18.94"/>
                  <path class="cls-12" d="M1500.09,725.67c-1.81-4.66-4.97-8.9-9.1-12.21"/>
                  <path class="cls-12" d="M1497.38,731.33c.24-2.31-.6-4.7-2.29-6.48"/>
                  <path class="cls-12" d="M1407.37,745.16c-5.58,7.32-12.93,13.58-21.41,18.25"/>
                  <path class="cls-12" d="M1398.87,743.66c-4.24,5.87-9.8,10.98-16.27,14.96"/>
                  <path class="cls-12" d="M1382.14,746.12c-2.1,4.41-4.57,8.67-7.38,12.76"/>
                  <path class="cls-12" d="M1376.89,747.04c-1.61,4.4-4.37,8.47-7.99,11.81"/>
                  <path class="cls-12" d="M1417.33,754.18c-3.88,1.76-7.61,3.79-11.15,6.04"/>
                </g>
              </g>
            </g>
            <g>
              <path class="cls-25" d="M1253.95,738.07c0,.93-.85,1.68-1.9,1.68s-1.9-.75-1.9-1.68,.85-1.68,1.9-1.68,1.9,.75,1.9,1.68Z"/>
              <path class="cls-25" d="M1136.75,652.93c0,.93-.85,1.68-1.9,1.68s-1.9-.75-1.9-1.68c0-.93,.85-1.68,1.9-1.68s1.9,.75,1.9,1.68Z"/>
              <path class="cls-25" d="M1364.12,609.93c0,.93-.85,1.68-1.9,1.68s-1.9-.75-1.9-1.68,.85-1.68,1.9-1.68,1.9,.75,1.9,1.68Z"/>
              <path class="cls-25" d="M1474.99,531.97c0,.93-.85,1.68-1.9,1.68s-1.9-.75-1.9-1.68,.85-1.68,1.9-1.68,1.9,.75,1.9,1.68Z"/>
              <path class="cls-18" d="M1504.92,530.29c0,.93-.85,1.68-1.9,1.68-1.05,0-1.9-.75-1.9-1.68,0-.93,.85-1.68,1.9-1.68s1.9,.75,1.9,1.68Z"/>
              <path class="cls-18" d="M1476.89,567.13c0,.93-.85,1.68-1.9,1.68s-1.9-.75-1.9-1.68c0-.93,.85-1.68,1.9-1.68s1.9,.75,1.9,1.68Z"/>
              <path class="cls-18" d="M1255.85,558.32c0,.93-.85,1.68-1.9,1.68s-1.9-.75-1.9-1.68,.85-1.68,1.9-1.68c1.05,0,1.9,.75,1.9,1.68Z"/>
              <ellipse class="cls-25" cx="1313.69" cy="547.1" rx="3.16" ry="2.79"/>
              <ellipse class="cls-25" cx="1369.25" cy="586.2" rx="3.16" ry="2.79"/>
              <ellipse class="cls-25" cx="1122.94" cy="736.39" rx="4.02" ry="3.56"/>
              <ellipse class="cls-25" cx="1516.53" cy="561.89" rx="4.02" ry="3.56"/>
              <ellipse class="cls-18" cx="1385.18" cy="493.87" rx="2.13" ry="1.88"/>
              <path class="cls-18" d="M1244.31,750.74c0,1.04-.95,1.88-2.13,1.88s-2.13-.84-2.13-1.88,.95-1.88,2.13-1.88,2.13,.84,2.13,1.88Z"/>
              <path class="cls-18" d="M1149.25,642c0,1.75-1.6,3.16-3.58,3.16s-3.58-1.42-3.58-3.16,1.6-3.16,3.58-3.16,3.58,1.42,3.58,3.16Z"/>
              <path class="cls-18" d="M1186.17,761.09c0,1.75-1.6,3.16-3.58,3.16-1.98,0-3.58-1.42-3.58-3.16s1.6-3.16,3.58-3.16,3.58,1.42,3.58,3.16Z"/>
              <ellipse class="cls-18" cx="1453.97" cy="511" rx="3.58" ry="3.16"/>
              <path class="cls-18" d="M1239.07,594.41c0,1.75-1.6,3.16-3.58,3.16s-3.58-1.42-3.58-3.16,1.6-3.16,3.58-3.16,3.58,1.42,3.58,3.16Z"/>
            </g>
          </g>
        </g>
      </g>
      <g>
        <text class="cls-15" transform="translate(372.74 223.36)"><tspan x="0" y="0">Choose version</tspan></text>
        <g>
          <rect class="cls-8" x="804.05" y="297.92" width="395.58" height="275.32" rx="12" ry="12"/>
          <rect class="cls-8" x="338.35" y="297.92" width="395.58" height="275.32" rx="12" ry="12"/>
        </g>
        <g>
          <rect class="cls-9" x="23.23" y="675.92" width="140.06" height="62.28" rx="12" ry="12"/>
          <text class="cls-13" transform="translate(46.19 724.09) scale(1.13 1)"><tspan x="0" y="0">Back</tspan></text>
        </g>
      </g>
    </g>
  </g>
</svg>